<svg width="82" height="69" viewBox="0 0 82 69" fill="none" xmlns="http://www.w3.org/2000/svg">
<g clip-path="url(#clip0_20981_83836)">
<mask id="mask0_20981_83836" style="mask-type:luminance" maskUnits="userSpaceOnUse" x="0" y="0" width="82" height="69">
<path d="M82 0.75H0V68.75H82V0.75Z" fill="white"/>
</mask>
<g mask="url(#mask0_20981_83836)">
<path d="M20.2324 52.4766C20.4219 52.4963 20.6602 52.5913 20.7705 52.7344C21.6099 53.8241 22.417 54.939 23.248 56.0352C23.4906 56.3555 23.775 56.6445 24.0459 56.9424C24.1222 57.0267 24.2191 57.0922 24.2695 57.1348C26.2417 56.4423 28.1727 55.764 30.1426 55.0723C29.7861 54.2357 29.436 53.412 29.0596 52.5283H30.2793C30.6585 53.2574 31.0437 53.9982 31.4375 54.7559C33.9971 54.2404 36.5676 53.9414 39.1504 53.8262C39.4309 53.4091 39.1815 52.9483 39.3145 52.5254H40.4561C40.481 52.9338 40.5055 53.3385 40.5322 53.7734C43.191 53.9626 45.8205 54.2303 48.4502 54.7939C48.8336 54.0414 49.216 53.2895 49.6035 52.5283H50.833C50.4617 53.3787 50.1121 54.1802 49.7441 55.0225C49.8673 55.0883 49.9764 55.1742 50.0996 55.208C51.8892 55.7001 53.6179 56.3651 55.3369 57.0566C55.3851 57.0763 55.4363 57.0895 55.5098 57.1133C56.9113 55.7465 58.0013 54.1292 59.1035 52.5225H60.4395C59.3898 54.3914 58.0606 56.0065 56.7051 57.6504C57.2097 57.944 57.6844 58.2206 58.1592 58.4961C58.7727 58.8521 59.3909 59.2001 59.9971 59.5684C60.2032 59.6935 60.3409 59.6366 60.5068 59.5049C62.5333 57.8944 64.3175 56.0449 65.9053 54.0029C66.2692 53.5348 66.6171 53.0546 66.9922 52.5537H68.3066C63.2793 60.5551 53.3997 67.5757 40.7217 67.8594C27.1626 68.1628 16.4673 60.5947 11.4336 52.5518H12.7734C14.2456 54.7003 15.9438 56.6283 17.8896 58.334C18.4301 58.8077 18.9922 59.258 19.585 59.7529C20.7524 59.0832 21.9061 58.4214 23.0947 57.7402C21.7463 56.0504 20.3731 54.4384 19.3203 52.5322C19.6652 52.5066 19.9534 52.4476 20.2324 52.4766ZM45.4053 64.6846C43.1991 63.6916 40.8785 63.4034 38.4854 63.6455C36.4748 63.8486 34.5949 64.4421 32.8965 65.5615C32.8088 65.6193 32.7349 65.6993 32.6406 65.7812C34.8874 66.9176 45.2553 66.9072 47.2305 65.7588C47.1186 65.669 47.0465 65.5927 46.959 65.543C46.4441 65.2512 45.9429 64.9267 45.4053 64.6846ZM55.79 58.7285C54.5171 59.8124 53.3148 60.9159 52.0283 61.9102C50.7483 62.8995 49.3842 63.7798 48.0273 64.7285C48.3377 64.9551 48.6347 65.1727 48.9424 65.3975C52.578 64.2959 55.9936 62.8523 59.0312 60.5195C57.9596 59.7796 56.8897 59.1685 55.79 58.7285ZM20.8271 60.5029C20.8352 60.5468 20.8426 60.5909 20.8506 60.6348C23.918 62.8198 27.257 64.4307 30.9482 65.3906C31.2136 65.1811 31.4882 64.9649 31.7949 64.7227C28.9734 62.954 26.3576 61.0371 23.9951 58.6943C22.9291 59.3028 21.878 59.9031 20.8271 60.5029ZM30.7959 56.3477C30.2553 56.2245 26.0976 57.6474 25.374 58.1982C26.1399 59.4869 31.8253 63.6094 33.2275 63.9092C33.8555 63.6322 34.474 63.3604 35.1309 63.0703C33.5828 60.854 32.045 58.684 30.7959 56.3477ZM48.9668 56.54C47.813 58.669 46.4968 60.6931 45.0576 62.6387C44.9612 62.7689 44.8937 62.9212 44.7969 63.0908C45.4229 63.365 46.0022 63.619 46.6465 63.9014C49.54 62.4102 52.1712 60.5466 54.4326 58.1064C52.7078 57.2674 50.962 56.685 49.1367 56.2822C49.0685 56.3852 49.0108 56.459 48.9668 56.54ZM40.5928 55.1094C40.465 57.5207 40.5022 59.8908 40.5928 62.2822C41.5525 62.4194 42.4896 62.5527 43.4258 62.6865C45.1012 60.5365 46.61 58.378 47.8516 55.9688C45.4167 55.3904 43.0316 55.1393 40.5928 55.1094ZM38.877 55.1074C36.711 55.1253 34.5777 55.437 32.4551 55.835C32.3299 55.8587 32.2153 55.94 32.0732 56.0049C33.354 58.4075 34.8109 60.6307 36.5293 62.6533C37.4601 62.5258 38.3582 62.4034 39.2559 62.2803V55.1074C39.1053 55.1074 38.9909 55.1065 38.877 55.1074ZM64.5391 19.7178C67.5624 19.5867 70.4923 20.0284 73.3145 21.1396C75.5143 22.0057 77.4095 23.2896 78.8955 25.1592C80.0129 26.5651 80.6409 28.1854 81.0049 29.9121C81.2384 31.0193 81.3598 32.1505 81.5322 33.2705C81.5495 33.3839 81.5718 33.4964 81.5918 33.6094V36.0928C81.4863 36.901 81.4064 37.7137 81.2695 38.5166C81.0005 40.0932 80.5078 41.5994 79.8105 43.042C78.7672 45.2003 77.0755 46.7047 75.0352 47.8691C73.2033 48.9146 71.2012 49.4358 69.1426 49.7627C66.2536 50.2211 63.3821 50.1368 60.542 49.3955C58.0248 48.7384 55.7294 47.6302 53.7666 45.9072C52.3607 44.6727 51.4192 43.1023 50.7705 41.3564C49.8987 39.0105 49.6614 36.5759 49.7939 34.0928C49.887 32.3496 50.1169 30.6229 50.6113 28.9502C51.6636 25.3916 53.9102 22.873 57.3076 21.375C59.615 20.3577 62.0274 19.8268 64.5391 19.7178ZM26.4346 20.7363C28.7673 19.8148 31.1966 19.5861 33.6758 19.7695C35.6632 19.9166 37.5927 20.3401 39.4326 21.1143C40.0545 21.3762 40.637 21.7344 41.2373 22.0479C41.3396 22.1012 41.4426 22.1534 41.5449 22.2061C41.5814 22.1982 41.618 22.1897 41.6543 22.1816V20.4922H47.9717C48.008 23.8215 48.0434 27.1375 48.0801 30.5029H41.8818C41.7278 30.2996 41.5508 30.0491 41.3574 29.8125C40.4586 28.7124 39.3213 27.9348 38.0215 27.3926C36.027 26.5609 33.9432 26.2068 31.7871 26.2803C31.2587 26.2982 30.7581 26.4278 30.3359 26.7676C29.6835 27.293 29.7576 28.1185 30.5205 28.4805C31.0426 28.7283 31.594 28.9266 32.1494 29.0889C35.4005 30.0393 38.6713 30.926 41.9072 31.9258C44.7494 32.8039 46.8979 34.6063 48.2295 37.2822C49.9277 40.696 48.8678 45.0656 45.8174 47.542C44.4238 48.6734 42.7957 49.2824 41.0703 49.6436C37.4878 50.3935 33.99 49.9885 30.5801 48.7393C29.7899 48.4499 29.053 48.0137 28.292 47.6445C28.0851 47.5442 27.8795 47.4419 27.6221 47.3154C27.5903 48.0051 27.5602 48.6459 27.5283 49.3359H21.1211C20.9669 48.7383 20.9457 39.9958 21.1064 38.6309H26.9238C26.9942 38.7338 27.1185 38.8806 27.2051 39.0469C27.6807 39.959 28.4272 40.6141 29.248 41.1895C31.6016 42.8399 34.231 43.4003 37.0586 43.1084C37.6878 43.0434 38.3127 42.911 38.9307 42.7705C39.3531 42.6744 39.7526 42.4814 39.8164 41.9814C39.8793 41.4847 39.5273 41.2184 39.1494 41.0371C38.7702 40.8555 38.3602 40.7328 37.9561 40.6094C35.0205 39.7121 32.0815 38.8256 29.1465 37.9268C27.5429 37.4357 25.9733 36.8657 24.5859 35.8848C23.4124 35.0548 22.3879 34.0842 21.7002 32.8027C20.9507 31.4061 20.7417 29.8878 20.8037 28.333C20.8839 26.3312 21.5204 24.5272 22.8887 23.0283C23.8679 21.9557 25.1019 21.2628 26.4346 20.7363ZM19.2412 20.0312C19.3845 22.4436 19.3304 24.8244 19.291 27.2646H14.9609V42.3057C16.3609 42.3339 17.7937 42.3631 19.2568 42.3926V49.3721H0.356445C0.325946 49.1051 0.295226 48.837 0.264648 48.5693V43.2217C0.292871 42.9611 0.320901 42.6999 0.353516 42.3994C1.745 42.3692 3.13734 42.3396 4.52441 42.3096C4.63926 42.0034 4.70214 28.0149 4.58398 27.2949C3.20744 27.2593 1.81604 27.2236 0.380859 27.1865V20.0312H19.2412ZM66.4795 27.084C65.2377 26.9406 64.0237 27.0854 62.8867 27.6367C62.0742 28.0309 61.5 28.6585 61.3135 29.5605C61.1377 30.4098 60.9701 31.2671 60.8867 32.1289C60.7003 34.0563 60.8037 35.9892 60.9424 37.9141C60.9996 38.7094 61.1864 39.5063 61.4053 40.2764C61.6098 40.9958 62.0511 41.6082 62.7373 41.9512C64.3481 42.7563 66.0317 42.9156 67.7656 42.4004C69.192 41.9764 69.9954 41.0009 70.2354 39.5479C70.4803 38.0662 70.4866 36.5698 70.4688 35.0732C70.4688 34.6703 70.4693 34.2672 70.4688 33.8643C70.4668 32.6446 70.4527 31.4271 70.2871 30.2139C70.0978 28.8261 69.3621 27.8857 68.0537 27.4277C67.5499 27.2513 67.0111 27.1454 66.4795 27.084ZM43.2354 1.75488C50.8906 2.54496 57.5295 5.58648 63.1787 10.8086C64.9679 12.4626 66.5375 14.311 67.9199 16.3184C67.9965 16.4293 68.0653 16.5453 68.1504 16.6787C67.6891 16.909 67.251 16.7047 66.7939 16.7295C64.9017 14.0309 62.6506 11.6706 59.9854 9.64648C58.8069 10.1906 57.7205 10.9279 56.5039 11.5771C56.5995 11.7301 56.661 11.8666 56.7559 11.9727C57.9798 13.3425 59.1093 14.784 60.084 16.3438C60.1505 16.4503 60.2066 16.564 60.3164 16.7617C59.8506 16.7865 59.4417 16.808 59.0273 16.8301C57.8745 15.1959 56.6976 13.6167 55.3496 12.2012C53.4036 12.9011 51.4783 13.5936 49.5234 14.2969C49.8634 15.0752 50.2129 15.8778 50.584 16.7275C50.1821 16.8944 49.7875 16.8171 49.3779 16.8057C48.9943 16.0826 48.613 15.3627 48.2139 14.6104C48.1145 14.606 47.9976 14.5761 47.8936 14.6006C45.5039 15.1647 43.0732 15.4063 40.6279 15.5361C40.5868 15.5383 40.5455 15.5494 40.4434 15.5674C40.4193 15.9629 40.3948 16.3669 40.3691 16.79H39.2041C39.047 16.3822 39.3091 15.9074 38.9805 15.5029C36.3797 15.4163 33.7838 15.1404 31.1768 14.5674C30.814 15.3107 30.4527 16.0503 30.0762 16.8213H28.8301C29.196 15.9777 29.5427 15.177 29.9072 14.3369C29.794 14.27 29.6976 14.1899 29.5869 14.1514C27.8576 13.5504 26.1254 12.9547 24.3945 12.3584C24.3349 12.3378 24.2736 12.3214 24.1855 12.2949C22.828 13.6652 21.684 15.2145 20.5576 16.8457H19.2705C20.3268 14.9591 21.6639 13.3739 22.9863 11.7275C21.8219 11.0636 20.6851 10.4144 19.4736 9.72363C18.7793 10.3023 18.0499 10.8808 17.3535 11.4961C15.6776 12.9772 14.2531 14.6868 12.9346 16.4863C12.7332 16.7612 12.5077 16.8759 12.1885 16.8535C11.9275 16.8352 11.6666 16.8145 11.3496 16.791C11.547 16.4989 11.7117 16.2439 11.8877 15.9971C17.0823 8.70969 24.0678 4.1593 32.8008 2.30273C34.7495 1.88848 36.7233 1.62865 38.7236 1.64258C38.8472 1.64347 38.9712 1.60053 39.0947 1.57812C39.8788 1.57821 40.6625 1.57812 41.4463 1.57812C42.0427 1.63703 42.6393 1.69337 43.2354 1.75488ZM36.3135 6.74805C34.5831 8.78532 33.1253 10.9963 31.8281 13.415C34.2508 13.9355 36.632 14.2882 39.1035 14.2314C39.0932 11.8085 39.1931 9.47078 39.0596 7.12207C38.1251 6.99487 37.2251 6.87208 36.3135 6.74805ZM40.4365 7.16699C40.4133 9.54228 40.3333 11.8796 40.4502 14.2334C42.8498 14.2193 45.1755 13.9451 47.5273 13.376C46.3396 10.9436 44.7379 8.8553 43.0996 6.78418C42.2 6.91356 41.3244 7.03931 40.4365 7.16699ZM32.918 5.58789C30.149 7.0181 27.6963 8.88663 25.4395 11.0234C25.3587 11.0997 25.3269 11.2277 25.2607 11.3525C27.0015 12.0933 28.7336 12.6793 30.5039 13.1016C30.5812 12.9878 30.6191 12.9369 30.6514 12.8828C31.9065 10.768 33.1653 8.65527 34.6973 6.72266C34.7828 6.61503 34.8168 6.46639 34.8896 6.30371C34.217 6.04315 33.588 5.7995 33.0039 5.57324C32.9389 5.58359 32.9271 5.58326 32.918 5.58789ZM44.5459 6.35645C46.0306 8.59153 47.4887 10.7861 48.9814 13.0332C50.7747 12.6398 52.5216 11.984 54.2871 11.1885C51.9219 8.84129 49.3533 6.93383 46.4639 5.47852C45.7957 5.78418 45.1482 6.0806 44.5459 6.35645ZM30.957 4.20215C30.7899 4.06492 30.6285 4.05468 30.4268 4.11914C30.2596 4.17259 30.0741 4.17025 29.8906 4.19336C29.6194 4.3107 29.3393 4.45473 29.0449 4.55469C26.2906 5.48973 23.7101 6.77173 21.3135 8.42285C21.1073 8.56473 20.9107 8.72043 20.708 8.87109C21.1488 9.35514 23.0925 10.435 23.9873 10.6953C26.3092 8.42046 28.8796 6.47327 31.6719 4.74023C31.4081 4.54276 31.175 4.38145 30.957 4.20215ZM47.7705 4.70801C50.6252 6.37823 53.184 8.29687 55.4551 10.5576C55.776 10.5803 58.5176 9.09441 58.7412 8.76953C55.6429 6.5751 52.2971 4.97561 48.6123 4.02441C48.3464 4.24036 48.0824 4.45468 47.7705 4.70801ZM46.9102 3.64746C42.1073 2.46347 37.3121 2.55562 32.5078 3.65137C34.2833 4.97862 36.2865 5.66653 38.4668 5.82715C41.5173 6.05185 44.3678 5.45169 46.9102 3.64746Z" fill="#F5F5F5"/>
<path d="M20.2324 52.4766C20.4219 52.4963 20.6602 52.5913 20.7705 52.7344C21.6099 53.8241 22.417 54.939 23.248 56.0352C23.4906 56.3555 23.775 56.6445 24.0459 56.9424C24.1222 57.0267 24.2191 57.0922 24.2695 57.1348C26.2417 56.4423 28.1727 55.764 30.1426 55.0723C29.7861 54.2357 29.436 53.412 29.0596 52.5283H30.2793C30.6585 53.2574 31.0437 53.9982 31.4375 54.7559C33.9971 54.2404 36.5676 53.9414 39.1504 53.8262C39.4309 53.4091 39.1815 52.9483 39.3145 52.5254H40.4561C40.481 52.9338 40.5055 53.3385 40.5322 53.7734C43.191 53.9626 45.8205 54.2303 48.4502 54.7939C48.8336 54.0414 49.216 53.2895 49.6035 52.5283H50.833C50.4617 53.3787 50.1121 54.1802 49.7441 55.0225C49.8673 55.0883 49.9764 55.1742 50.0996 55.208C51.8892 55.7001 53.6179 56.3651 55.3369 57.0566C55.3851 57.0763 55.4363 57.0895 55.5098 57.1133C56.9113 55.7465 58.0013 54.1292 59.1035 52.5225H60.4395C59.3898 54.3914 58.0606 56.0065 56.7051 57.6504C57.2097 57.944 57.6844 58.2206 58.1592 58.4961C58.7727 58.8521 59.3909 59.2001 59.9971 59.5684C60.2032 59.6935 60.3409 59.6366 60.5068 59.5049C62.5333 57.8944 64.3175 56.0449 65.9053 54.0029C66.2692 53.5348 66.6171 53.0546 66.9922 52.5537H68.3066C63.2793 60.5551 53.3997 67.5757 40.7217 67.8594C27.1626 68.1628 16.4673 60.5947 11.4336 52.5518H12.7734C14.2456 54.7003 15.9438 56.6283 17.8896 58.334C18.4301 58.8077 18.9922 59.258 19.585 59.7529C20.7524 59.0832 21.9061 58.4214 23.0947 57.7402C21.7463 56.0504 20.3731 54.4384 19.3203 52.5322C19.6652 52.5066 19.9534 52.4476 20.2324 52.4766ZM45.4053 64.6846C43.1991 63.6916 40.8785 63.4034 38.4854 63.6455C36.4748 63.8486 34.5949 64.4421 32.8965 65.5615C32.8088 65.6193 32.7349 65.6993 32.6406 65.7812C34.8874 66.9176 45.2553 66.9072 47.2305 65.7588C47.1186 65.669 47.0465 65.5927 46.959 65.543C46.4441 65.2512 45.9429 64.9267 45.4053 64.6846ZM55.79 58.7285C54.5171 59.8124 53.3148 60.9159 52.0283 61.9102C50.7483 62.8995 49.3842 63.7798 48.0273 64.7285C48.3377 64.9551 48.6347 65.1727 48.9424 65.3975C52.578 64.2959 55.9936 62.8523 59.0312 60.5195C57.9596 59.7796 56.8897 59.1685 55.79 58.7285ZM20.8271 60.5029C20.8352 60.5468 20.8426 60.5909 20.8506 60.6348C23.918 62.8198 27.257 64.4307 30.9482 65.3906C31.2136 65.1811 31.4882 64.9649 31.7949 64.7227C28.9734 62.954 26.3576 61.0371 23.9951 58.6943C22.9291 59.3028 21.878 59.9031 20.8271 60.5029ZM30.7959 56.3477C30.2553 56.2245 26.0976 57.6474 25.374 58.1982C26.1399 59.4869 31.8253 63.6094 33.2275 63.9092C33.8555 63.6322 34.474 63.3604 35.1309 63.0703C33.5828 60.854 32.045 58.684 30.7959 56.3477ZM48.9668 56.54C47.813 58.669 46.4968 60.6931 45.0576 62.6387C44.9612 62.7689 44.8937 62.9212 44.7969 63.0908C45.4229 63.365 46.0022 63.619 46.6465 63.9014C49.54 62.4102 52.1712 60.5466 54.4326 58.1064C52.7078 57.2674 50.962 56.685 49.1367 56.2822C49.0685 56.3852 49.0108 56.459 48.9668 56.54ZM40.5928 55.1094C40.465 57.5207 40.5022 59.8908 40.5928 62.2822C41.5525 62.4194 42.4896 62.5527 43.4258 62.6865C45.1012 60.5365 46.61 58.378 47.8516 55.9688C45.4167 55.3904 43.0316 55.1393 40.5928 55.1094ZM38.877 55.1074C36.711 55.1253 34.5777 55.437 32.4551 55.835C32.3299 55.8587 32.2153 55.94 32.0732 56.0049C33.354 58.4075 34.8109 60.6307 36.5293 62.6533C37.4601 62.5258 38.3582 62.4034 39.2559 62.2803V55.1074C39.1053 55.1074 38.9909 55.1065 38.877 55.1074ZM64.5391 19.7178C67.5624 19.5867 70.4923 20.0284 73.3145 21.1396C75.5143 22.0057 77.4095 23.2896 78.8955 25.1592C80.0129 26.5651 80.6409 28.1854 81.0049 29.9121C81.2384 31.0193 81.3598 32.1505 81.5322 33.2705C81.5495 33.3839 81.5718 33.4964 81.5918 33.6094V36.0928C81.4863 36.901 81.4064 37.7137 81.2695 38.5166C81.0005 40.0932 80.5078 41.5994 79.8105 43.042C78.7672 45.2003 77.0755 46.7047 75.0352 47.8691C73.2033 48.9146 71.2012 49.4358 69.1426 49.7627C66.2536 50.2211 63.3821 50.1368 60.542 49.3955C58.0248 48.7384 55.7294 47.6302 53.7666 45.9072C52.3607 44.6727 51.4192 43.1023 50.7705 41.3564C49.8987 39.0105 49.6614 36.5759 49.7939 34.0928C49.887 32.3496 50.1169 30.6229 50.6113 28.9502C51.6636 25.3916 53.9102 22.873 57.3076 21.375C59.615 20.3577 62.0274 19.8268 64.5391 19.7178ZM26.4346 20.7363C28.7673 19.8148 31.1966 19.5861 33.6758 19.7695C35.6632 19.9166 37.5927 20.3401 39.4326 21.1143C40.0545 21.3762 40.637 21.7344 41.2373 22.0479C41.3396 22.1012 41.4426 22.1534 41.5449 22.2061C41.5814 22.1982 41.618 22.1897 41.6543 22.1816V20.4922H47.9717C48.008 23.8215 48.0434 27.1375 48.0801 30.5029H41.8818C41.7278 30.2996 41.5508 30.0491 41.3574 29.8125C40.4586 28.7124 39.3213 27.9348 38.0215 27.3926C36.027 26.5609 33.9432 26.2068 31.7871 26.2803C31.2587 26.2982 30.7581 26.4278 30.3359 26.7676C29.6835 27.293 29.7576 28.1185 30.5205 28.4805C31.0426 28.7283 31.594 28.9266 32.1494 29.0889C35.4005 30.0393 38.6713 30.926 41.9072 31.9258C44.7494 32.8039 46.8979 34.6063 48.2295 37.2822C49.9277 40.696 48.8678 45.0656 45.8174 47.542C44.4238 48.6734 42.7957 49.2824 41.0703 49.6436C37.4878 50.3935 33.99 49.9885 30.5801 48.7393C29.7899 48.4499 29.053 48.0137 28.292 47.6445C28.0851 47.5442 27.8795 47.4419 27.6221 47.3154C27.5903 48.0051 27.5602 48.6459 27.5283 49.3359H21.1211C20.9669 48.7383 20.9457 39.9958 21.1064 38.6309H26.9238C26.9942 38.7338 27.1185 38.8806 27.2051 39.0469C27.6807 39.959 28.4272 40.6141 29.248 41.1895C31.6016 42.8399 34.231 43.4003 37.0586 43.1084C37.6878 43.0434 38.3127 42.911 38.9307 42.7705C39.3531 42.6744 39.7526 42.4814 39.8164 41.9814C39.8793 41.4847 39.5273 41.2184 39.1494 41.0371C38.7702 40.8555 38.3602 40.7328 37.9561 40.6094C35.0205 39.7121 32.0815 38.8256 29.1465 37.9268C27.5429 37.4357 25.9733 36.8657 24.5859 35.8848C23.4124 35.0548 22.3879 34.0842 21.7002 32.8027C20.9507 31.4061 20.7417 29.8878 20.8037 28.333C20.8839 26.3312 21.5204 24.5272 22.8887 23.0283C23.8679 21.9557 25.1019 21.2628 26.4346 20.7363ZM19.2412 20.0312C19.3845 22.4436 19.3304 24.8244 19.291 27.2646H14.9609V42.3057C16.3609 42.3339 17.7937 42.3631 19.2568 42.3926V49.3721H0.356445C0.325946 49.1051 0.295226 48.837 0.264648 48.5693V43.2217C0.292871 42.9611 0.320901 42.6999 0.353516 42.3994C1.745 42.3692 3.13734 42.3396 4.52441 42.3096C4.63926 42.0034 4.70214 28.0149 4.58398 27.2949C3.20744 27.2593 1.81604 27.2236 0.380859 27.1865V20.0312H19.2412ZM66.4795 27.084C65.2377 26.9406 64.0237 27.0854 62.8867 27.6367C62.0742 28.0309 61.5 28.6585 61.3135 29.5605C61.1377 30.4098 60.9701 31.2671 60.8867 32.1289C60.7003 34.0563 60.8037 35.9892 60.9424 37.9141C60.9996 38.7094 61.1864 39.5063 61.4053 40.2764C61.6098 40.9958 62.0511 41.6082 62.7373 41.9512C64.3481 42.7563 66.0317 42.9156 67.7656 42.4004C69.192 41.9764 69.9954 41.0009 70.2354 39.5479C70.4803 38.0662 70.4866 36.5698 70.4688 35.0732C70.4688 34.6703 70.4693 34.2672 70.4688 33.8643C70.4668 32.6446 70.4527 31.4271 70.2871 30.2139C70.0978 28.8261 69.3621 27.8857 68.0537 27.4277C67.5499 27.2513 67.0111 27.1454 66.4795 27.084ZM43.2354 1.75488C50.8906 2.54496 57.5295 5.58648 63.1787 10.8086C64.9679 12.4626 66.5375 14.311 67.9199 16.3184C67.9965 16.4293 68.0653 16.5453 68.1504 16.6787C67.6891 16.909 67.251 16.7047 66.7939 16.7295C64.9017 14.0309 62.6506 11.6706 59.9854 9.64648C58.8069 10.1906 57.7205 10.9279 56.5039 11.5771C56.5995 11.7301 56.661 11.8666 56.7559 11.9727C57.9798 13.3425 59.1093 14.784 60.084 16.3438C60.1505 16.4503 60.2066 16.564 60.3164 16.7617C59.8506 16.7865 59.4417 16.808 59.0273 16.8301C57.8745 15.1959 56.6976 13.6167 55.3496 12.2012C53.4036 12.9011 51.4783 13.5936 49.5234 14.2969C49.8634 15.0752 50.2129 15.8778 50.584 16.7275C50.1821 16.8944 49.7875 16.8171 49.3779 16.8057C48.9943 16.0826 48.613 15.3627 48.2139 14.6104C48.1145 14.606 47.9976 14.5761 47.8936 14.6006C45.5039 15.1647 43.0732 15.4063 40.6279 15.5361C40.5868 15.5383 40.5455 15.5494 40.4434 15.5674C40.4193 15.9629 40.3948 16.3669 40.3691 16.79H39.2041C39.047 16.3822 39.3091 15.9074 38.9805 15.5029C36.3797 15.4163 33.7838 15.1404 31.1768 14.5674C30.814 15.3107 30.4527 16.0503 30.0762 16.8213H28.8301C29.196 15.9777 29.5427 15.177 29.9072 14.3369C29.794 14.27 29.6976 14.1899 29.5869 14.1514C27.8576 13.5504 26.1254 12.9547 24.3945 12.3584C24.3349 12.3378 24.2736 12.3214 24.1855 12.2949C22.828 13.6652 21.684 15.2145 20.5576 16.8457H19.2705C20.3268 14.9591 21.6639 13.3739 22.9863 11.7275C21.8219 11.0636 20.6851 10.4144 19.4736 9.72363C18.7793 10.3023 18.0499 10.8808 17.3535 11.4961C15.6776 12.9772 14.2531 14.6868 12.9346 16.4863C12.7332 16.7612 12.5077 16.8759 12.1885 16.8535C11.9275 16.8352 11.6666 16.8145 11.3496 16.791C11.547 16.4989 11.7117 16.2439 11.8877 15.9971C17.0823 8.70969 24.0678 4.1593 32.8008 2.30273C34.7495 1.88848 36.7233 1.62865 38.7236 1.64258C38.8472 1.64347 38.9712 1.60053 39.0947 1.57812C39.8788 1.57821 40.6625 1.57812 41.4463 1.57812C42.0427 1.63703 42.6393 1.69337 43.2354 1.75488ZM36.3135 6.74805C34.5831 8.78532 33.1253 10.9963 31.8281 13.415C34.2508 13.9355 36.632 14.2882 39.1035 14.2314C39.0932 11.8085 39.1931 9.47078 39.0596 7.12207C38.1251 6.99487 37.2251 6.87208 36.3135 6.74805ZM40.4365 7.16699C40.4133 9.54228 40.3333 11.8796 40.4502 14.2334C42.8498 14.2193 45.1755 13.9451 47.5273 13.376C46.3396 10.9436 44.7379 8.8553 43.0996 6.78418C42.2 6.91356 41.3244 7.03931 40.4365 7.16699ZM32.918 5.58789C30.149 7.0181 27.6963 8.88663 25.4395 11.0234C25.3587 11.0997 25.3269 11.2277 25.2607 11.3525C27.0015 12.0933 28.7336 12.6793 30.5039 13.1016C30.5812 12.9878 30.6191 12.9369 30.6514 12.8828C31.9065 10.768 33.1653 8.65527 34.6973 6.72266C34.7828 6.61503 34.8168 6.46639 34.8896 6.30371C34.217 6.04315 33.588 5.7995 33.0039 5.57324C32.9389 5.58359 32.9271 5.58326 32.918 5.58789ZM44.5459 6.35645C46.0306 8.59153 47.4887 10.7861 48.9814 13.0332C50.7747 12.6398 52.5216 11.984 54.2871 11.1885C51.9219 8.84129 49.3533 6.93383 46.4639 5.47852C45.7957 5.78418 45.1482 6.0806 44.5459 6.35645ZM30.957 4.20215C30.7899 4.06492 30.6285 4.05468 30.4268 4.11914C30.2596 4.17259 30.0741 4.17025 29.8906 4.19336C29.6194 4.3107 29.3393 4.45473 29.0449 4.55469C26.2906 5.48973 23.7101 6.77173 21.3135 8.42285C21.1073 8.56473 20.9107 8.72043 20.708 8.87109C21.1488 9.35514 23.0925 10.435 23.9873 10.6953C26.3092 8.42046 28.8796 6.47327 31.6719 4.74023C31.4081 4.54276 31.175 4.38145 30.957 4.20215ZM47.7705 4.70801C50.6252 6.37823 53.184 8.29687 55.4551 10.5576C55.776 10.5803 58.5176 9.09441 58.7412 8.76953C55.6429 6.5751 52.2971 4.97561 48.6123 4.02441C48.3464 4.24036 48.0824 4.45468 47.7705 4.70801ZM46.9102 3.64746C42.1073 2.46347 37.3121 2.55562 32.5078 3.65137C34.2833 4.97862 36.2865 5.66653 38.4668 5.82715C41.5173 6.05185 44.3678 5.45169 46.9102 3.64746Z" fill="#0A539F"/>
</g>
</g>
<defs>
<clipPath id="clip0_20981_83836">
<rect width="82" height="68" fill="white" transform="translate(0 0.75)"/>
</clipPath>
</defs>
</svg>
