<svg width="77" height="69" viewBox="0 0 77 69" fill="none" xmlns="http://www.w3.org/2000/svg">
<path d="M22.6862 30.8823V43.3712H18.728V27.6733L26.8997 27.6814C30.3705 27.6814 31.5529 30.1398 31.5529 32.3728V43.3712H27.6019V32.3934C27.6019 31.458 27.1198 30.8824 25.957 30.8824L22.6862 30.8823ZM49.6012 30.6948C48.2483 30.6948 47.2012 31.3933 46.7639 32.3417C46.5048 32.911 46.4157 33.3474 46.3852 34.0445H52.4747C52.3965 32.3417 51.6277 30.6948 49.6012 30.6948ZM46.3852 36.7502C46.3852 38.7837 47.6438 40.2803 49.8908 40.2803C51.6391 40.2803 52.508 39.7937 53.5189 38.7837L55.9636 41.1282C54.3982 42.6803 52.7557 43.6229 49.8618 43.6229C46.0727 43.6229 42.4466 41.5478 42.4466 35.5C42.4466 30.3326 45.6125 27.4073 49.7727 27.4073C53.9895 27.4073 56.4257 30.8321 56.4257 35.3182V36.7502H46.3852ZM39.1053 43.3516C35.8807 43.3516 34.5126 41.0971 34.5126 38.8703V23.3963H38.4646V27.6733H41.4438V30.8823H38.4646V38.6215C38.4646 39.5335 38.8933 40.0397 39.836 40.0397H41.4438V43.3516H39.1053ZM15.2062 25.5039H11.2209V21.7016H15.2062V25.5039ZM15.2162 43.5363C12.2318 43.2483 11.2166 41.4301 11.2166 39.332L11.2209 27.6733H15.2163L15.2162 43.5363ZM62.7157 43.2009C59.7374 42.9124 58.727 41.0971 58.727 39.0019V21.1604H62.7157V43.2009ZM76.6596 23.7389C73.0449 6.03806 38.8352 4.9175 16.7849 18.4002V19.8887C38.8128 8.51842 70.0537 8.5854 72.9 24.8886C73.8523 30.2795 70.8278 35.9 65.4263 39.1306V43.3574C71.9278 40.9684 78.5955 33.2216 76.6596 23.7389ZM36.5772 54.7084C21.359 56.1214 5.50064 53.9027 3.28171 41.9588C2.19558 36.0708 4.86612 29.8292 8.40889 25.9522V23.8791C2.03123 29.4962 -1.43008 36.6077 0.562578 45.0104C3.10593 55.7855 16.7163 61.8916 37.4904 59.8639C45.7097 59.0582 56.4676 56.4037 63.9466 52.2807V46.4234C57.1603 50.4822 45.9303 53.8386 36.5772 54.7084Z" fill="#0071C5"/>
<path d="M67.326 22.3488C67.326 22.1545 67.2131 22.0928 66.9549 22.0928H66.7058V22.6425C66.742 22.6425 66.923 22.6492 66.9549 22.6492C67.2131 22.6492 67.326 22.5626 67.326 22.3808V22.3488ZM67.7148 23.7119H67.4194C67.3927 23.7119 67.3694 23.6951 67.358 23.6727L66.9549 22.9865C66.9478 22.9727 66.913 22.9559 66.8992 22.9559H66.7182V23.6363C66.7182 23.6727 66.6934 23.7119 66.6458 23.7119H66.3785C66.3452 23.7119 66.3118 23.6727 66.3118 23.6363V21.9153C66.3118 21.8157 66.3504 21.7741 66.4343 21.7612C66.5286 21.7488 66.7849 21.7402 66.923 21.7402C67.4137 21.7402 67.7105 21.8856 67.7105 22.3488V22.3808C67.7105 22.6674 67.5685 22.8186 67.3484 22.8928L67.7662 23.6023C67.7689 23.6167 67.7786 23.6363 67.7786 23.653C67.7786 23.6808 67.7619 23.7119 67.7148 23.7119ZM67.0135 21.4296C66.2866 21.4296 65.6987 22.0325 65.6987 22.7583C65.6987 23.4851 66.2866 24.0784 67.0135 24.0784C67.7367 24.0784 68.3302 23.4851 68.3302 22.7583C68.3302 22.0325 67.7367 21.4296 67.0135 21.4296ZM67.0135 24.3521C66.1303 24.3521 65.4258 23.6363 65.4258 22.7583C65.4258 21.8818 66.1303 21.1641 67.0135 21.1641C67.8872 21.1641 68.6051 21.8818 68.6051 22.7583C68.6051 23.6363 67.8872 24.3521 67.0135 24.3521Z" fill="#0071C5"/>
</svg>
