<svg width="102" height="69" viewBox="0 0 102 69" fill="none" xmlns="http://www.w3.org/2000/svg">
<path fill-rule="evenodd" clip-rule="evenodd" d="M0.0744724 19.788C3.96502 19.7783 7.85632 19.7205 11.7461 19.7694C19.4967 19.8663 25.2123 25.0459 26.1503 32.7521C27.17 41.1266 22.4612 47.7896 14.2436 49.4037C12.4806 49.7495 10.6264 49.6627 8.81259 49.7055C5.90065 49.7742 2.98718 49.7841 0.0742188 49.8188C0.0744725 39.8086 0.0744724 29.7981 0.0744724 19.788ZM3.70336 23.2838C3.70336 30.9393 3.70336 38.6341 3.70336 46.1794C6.96883 46.1794 10.2031 46.4902 13.3533 46.1059C17.9857 45.5417 21.0481 42.8043 22.0209 38.1006C22.3176 36.6655 22.4102 35.151 22.3437 33.6841C22.0775 27.8194 18.8133 24.0541 13.0056 23.3484C9.97569 22.9804 6.86427 23.2838 3.70336 23.2838Z" fill="#064C70"/>
<path fill-rule="evenodd" clip-rule="evenodd" d="M46.0961 59.7359C46.0333 59.731 45.9713 59.7259 45.9103 59.72C43.434 59.4903 41.1532 58.3847 39.3471 56.6901C36.2824 53.8147 34.4281 49.2632 35.1655 45.0621C35.5814 42.6929 36.9295 39.9206 38.5816 38.1537C39.8046 36.8456 40.9892 35.5011 42.0823 34.2939C43.5683 35.6256 44.7585 36.6923 45.9908 37.7969C44.6973 39.1051 43.4945 40.2989 42.3171 41.5168C38.0477 45.9335 40.0886 53.2155 46.0433 54.7099C48.3451 55.2879 50.6338 54.9942 52.4796 53.4764C54.677 51.6693 56.6738 49.6182 58.8113 47.6224C54.5884 43.2462 50.4713 38.979 46.3534 34.7127C43.5075 31.7641 40.6394 28.8367 37.8383 25.846C37.4303 25.4103 37.1669 24.6819 37.1405 24.0755C37.0541 22.0934 37.1082 20.1048 37.1082 17.7812C48.6065 29.7281 59.869 41.4299 71.0985 53.0976C69.9657 54.2948 68.8605 55.4624 67.8354 56.5458C65.9372 54.8027 64.0907 53.1071 62.1118 51.2902C62.3143 51.4763 55.0689 57.6911 54.308 58.165C52.2453 59.4509 48.5365 59.9222 46.0961 59.7359Z" fill="#064C70"/>
<path fill-rule="evenodd" clip-rule="evenodd" d="M49.8887 9.89566C51.7981 10.3062 53.8608 11.4885 55.204 12.6216C59.9921 16.6602 60.1771 23.8344 55.8432 28.3449C54.9918 29.2309 54.2252 30.1981 53.3479 31.211C51.9498 29.7453 50.8675 28.6104 49.6496 27.3333C50.6112 26.4035 51.5757 25.5792 52.4127 24.6417C55.2986 21.4088 53.8585 16.2248 49.7239 15.032C47.5739 14.4118 45.5538 14.8129 43.9125 16.407C43.1213 17.1759 42.4724 18.0911 41.7755 18.9208C40.3464 17.5068 39.2111 16.3835 38.0134 15.1986C37.8648 15.0518 41.3457 11.9983 41.6976 11.7479C42.9091 10.886 44.8113 9.82569 46.3309 9.74419C47.0711 9.70446 47.8361 9.74419 48.5781 9.74496C48.9989 9.74522 49.4395 9.79904 49.8887 9.89566Z" fill="#4597B4"/>
<path fill-rule="evenodd" clip-rule="evenodd" d="M67.6621 45.5426C66.464 44.4175 65.3214 43.3446 64.1389 42.2344C64.3734 41.9471 64.5451 41.7156 64.7383 41.5034C68.3008 37.5934 67.4328 31.7633 62.8431 29.1496C62.0685 28.708 61.7428 28.249 61.7943 27.3656C61.8658 26.1428 61.8123 24.9131 61.8123 23.6875C65.2973 23.7493 69.6948 27.5063 71.159 31.5652C72.9636 36.567 71.5432 42.2362 67.6621 45.5426Z" fill="#4597B5"/>
<path fill-rule="evenodd" clip-rule="evenodd" d="M94.4096 33.9187C101.497 35.2589 102.513 42.5438 99.4236 46.2767C97.523 48.5729 94.8212 49.4291 91.9959 49.6078C88.2713 49.8428 84.5269 49.7683 80.791 49.8187C80.6298 49.8213 80.4675 49.7422 80.2578 49.6892C80.2578 39.7428 80.2578 29.82 80.2578 19.9141C80.3489 19.845 80.4162 19.7487 80.482 19.75C84.5981 19.825 88.7284 19.7321 92.8255 20.0551C95.3665 20.2553 97.5945 21.5031 98.829 23.9398C100.594 27.4227 99.1891 31.5529 95.6771 33.3052C95.3356 33.4759 94.9897 33.6384 94.4096 33.9187ZM83.8562 46.6924C86.7953 46.5288 89.6818 46.5918 92.4888 46.1536C95.6379 45.6611 97.2661 43.6634 97.19 41.124C97.1069 38.3473 95.5778 36.4893 92.3472 36.1082C89.5727 35.7808 86.7283 36.0401 83.8565 36.0401C83.8562 39.4559 83.8562 42.9265 83.8562 46.6924ZM83.8627 32.7157C86.7995 32.4689 89.6663 32.4203 92.4556 31.9317C94.618 31.5531 95.6691 29.8095 95.6789 27.5919C95.688 25.5081 94.586 23.8093 92.3937 23.4712C89.5993 23.0404 86.7355 23.0529 83.8629 22.8717C83.8627 26.2709 83.8627 29.314 83.8627 32.7157Z" fill="#4597B5"/>
</svg>
