<svg width="52" height="52" viewBox="0 0 52 52" fill="none" xmlns="http://www.w3.org/2000/svg">
<path d="M42.6122 51C42.6122 41.8497 35.1712 34.4438 26 34.4438C16.8288 34.4438 9.38778 41.8597 9.38778 51H42.6222M47.4029 15.0967L48.0229 16.3227C48.173 16.6217 48.453 16.831 48.773 16.8709L50.1332 17.0703C50.9633 17.1899 51.2934 18.2066 50.6933 18.7947L49.7032 19.7516C49.4731 19.9808 49.3531 20.3197 49.4131 20.6387L49.6432 21.9943C49.7832 22.8116 48.9231 23.4396 48.183 23.0508L46.9628 22.4129C46.6728 22.2634 46.3227 22.2634 46.0227 22.4129L44.8025 23.0508C44.0624 23.4396 43.1923 22.8116 43.3323 21.9943L43.5623 20.6387C43.6124 20.3097 43.5123 19.9808 43.2723 19.7516L42.2822 18.7947C41.6821 18.2066 42.0121 17.1999 42.8422 17.0703L44.2024 16.8709C44.5325 16.8211 44.8125 16.6217 44.9625 16.3227L45.5626 15.0967C45.9427 14.3491 47.0028 14.3491 47.3729 15.0967H47.4029ZM4.58714 15.0967L3.98706 16.3227C3.83704 16.6217 3.55701 16.831 3.22696 16.8709L1.86678 17.0703C1.03667 17.1899 0.706625 18.2066 1.3067 18.7947L2.29684 19.7516C2.53687 19.9808 2.63688 20.3197 2.58688 20.6387L2.35685 21.9943C2.21683 22.8116 3.08694 23.4396 3.82704 23.0508L5.0472 22.4129C5.33724 22.2634 5.68729 22.2634 5.98733 22.4129L7.20749 23.0508C7.94759 23.4396 8.80771 22.8116 8.66769 21.9943L8.43766 20.6387C8.37765 20.3097 8.48766 19.9808 8.7277 19.7516L9.71783 18.7947C10.3179 18.2066 9.97786 17.1999 9.15775 17.0703L7.79757 16.8709C7.46753 16.8211 7.18749 16.6217 7.04747 16.3227L6.42739 15.0967C6.05734 14.3491 4.9972 14.3491 4.61715 15.0967H4.58714ZM24.9399 1.65039L24.2298 3.08572C24.0597 3.43459 23.7297 3.67381 23.3396 3.72365L21.7494 3.9529C20.7793 4.09245 20.3993 5.27859 21.0893 5.95639L22.2395 7.07276C22.5195 7.34189 22.6396 7.73063 22.5795 8.11936L22.2995 9.69424C22.1395 10.6511 23.1396 11.3887 24.0097 10.9302L25.4399 10.1827C25.78 10.0032 26.19 10.0032 26.5401 10.1827L27.9703 10.9302C28.8304 11.3887 29.8405 10.6511 29.6805 9.69424L29.4105 8.11936C29.3504 7.74059 29.4705 7.35186 29.7505 7.07276L30.9107 5.95639C31.6108 5.27859 31.2207 4.09245 30.2506 3.9529L28.6604 3.72365C28.2703 3.66384 27.9403 3.42462 27.7702 3.08572L27.0601 1.65039C26.6301 0.783205 25.3799 0.783205 24.9499 1.65039H24.9399ZM26 16.7912C21.1093 16.7912 17.1488 20.7384 17.1488 25.6125C17.1488 30.4867 21.1093 34.4338 26 34.4338C30.8907 34.4338 34.8512 30.4767 34.8512 25.6125C34.8512 20.7483 30.8907 16.7912 26 16.7912Z" stroke="#F5F5F5" strokeWidth="2" strokeLinecap="round" strokeLinejoin="round"/>
<path d="M42.6122 51C42.6122 41.8497 35.1712 34.4438 26 34.4438C16.8288 34.4438 9.38778 41.8597 9.38778 51H42.6222M47.4029 15.0967L48.0229 16.3227C48.173 16.6217 48.453 16.831 48.773 16.8709L50.1332 17.0703C50.9633 17.1899 51.2934 18.2066 50.6933 18.7947L49.7032 19.7516C49.4731 19.9808 49.3531 20.3197 49.4131 20.6387L49.6432 21.9943C49.7832 22.8116 48.9231 23.4396 48.183 23.0508L46.9628 22.4129C46.6728 22.2634 46.3227 22.2634 46.0227 22.4129L44.8025 23.0508C44.0624 23.4396 43.1923 22.8116 43.3323 21.9943L43.5623 20.6387C43.6124 20.3097 43.5123 19.9808 43.2723 19.7516L42.2822 18.7947C41.6821 18.2066 42.0121 17.1999 42.8422 17.0703L44.2024 16.8709C44.5325 16.8211 44.8125 16.6217 44.9625 16.3227L45.5626 15.0967C45.9427 14.3491 47.0028 14.3491 47.3729 15.0967H47.4029ZM4.58714 15.0967L3.98706 16.3227C3.83704 16.6217 3.55701 16.831 3.22696 16.8709L1.86678 17.0703C1.03667 17.1899 0.706625 18.2066 1.3067 18.7947L2.29684 19.7516C2.53687 19.9808 2.63688 20.3197 2.58688 20.6387L2.35685 21.9943C2.21683 22.8116 3.08694 23.4396 3.82704 23.0508L5.0472 22.4129C5.33724 22.2634 5.68729 22.2634 5.98733 22.4129L7.20749 23.0508C7.94759 23.4396 8.80771 22.8116 8.66769 21.9943L8.43766 20.6387C8.37765 20.3097 8.48766 19.9808 8.7277 19.7516L9.71783 18.7947C10.3179 18.2066 9.97786 17.1999 9.15775 17.0703L7.79757 16.8709C7.46753 16.8211 7.18749 16.6217 7.04747 16.3227L6.42739 15.0967C6.05734 14.3491 4.9972 14.3491 4.61715 15.0967H4.58714ZM24.9399 1.65039L24.2298 3.08572C24.0597 3.43459 23.7297 3.67381 23.3396 3.72365L21.7494 3.9529C20.7793 4.09245 20.3993 5.27859 21.0893 5.95639L22.2395 7.07276C22.5195 7.34189 22.6396 7.73063 22.5795 8.11936L22.2995 9.69424C22.1395 10.6511 23.1396 11.3887 24.0097 10.9302L25.4399 10.1827C25.78 10.0032 26.19 10.0032 26.5401 10.1827L27.9703 10.9302C28.8304 11.3887 29.8405 10.6511 29.6805 9.69424L29.4105 8.11936C29.3504 7.74059 29.4705 7.35186 29.7505 7.07276L30.9107 5.95639C31.6108 5.27859 31.2207 4.09245 30.2506 3.9529L28.6604 3.72365C28.2703 3.66384 27.9403 3.42462 27.7702 3.08572L27.0601 1.65039C26.6301 0.783205 25.3799 0.783205 24.9499 1.65039H24.9399ZM26 16.7912C21.1093 16.7912 17.1488 20.7384 17.1488 25.6125C17.1488 30.4867 21.1093 34.4338 26 34.4338C30.8907 34.4338 34.8512 30.4767 34.8512 25.6125C34.8512 20.7483 30.8907 16.7912 26 16.7912Z" stroke="url(#paint0_linear_3074_21261)" strokeWidth="2" strokeLinecap="round" strokeLinejoin="round"/>
<defs>
<linearGradient id="paint0_linear_3074_21261" x1="0.999997" y1="102.21" x2="-36.1007" y2="75.5272" gradientUnits="userSpaceOnUse">
<stop stop-color="#7752E4"/>
<stop offset="0.372318" stop-color="#458CF7"/>
<stop offset="0.596085" stop-color="#4643FF"/>
<stop offset="0.931927" stop-color="#911EDA"/>
</linearGradient>
</defs>
</svg>
