<svg width="52" height="53" viewBox="0 0 52 53" fill="none" xmlns="http://www.w3.org/2000/svg">
<path d="M39.5411 30.72L34.8011 32.83C30.0711 34.95 25.0911 30.18 25.0911 30.18L21.7011 32.01C17.5411 34.45 15.7411 31.13 16.3911 30.57C16.7011 30.3 21.9911 25.55 23.5111 24.16C25.0411 22.77 26.0511 22.97 26.4811 22.97C26.9111 22.97 28.8211 23.26 33.0811 24.12C35.9311 24.7 38.3011 24.14 39.5711 23.71M12.6511 23.23L14.6111 24.19C14.6111 24.19 20.0011 24.16 21.2811 24.59L22.5711 25.02M6.79114 35.72L11.3111 38.63M45.2111 35.72L40.4611 38.53M25.7311 47.81L26.9611 49.04C27.7911 49.87 29.1311 49.87 29.9611 49.04C30.7911 48.21 30.7911 46.87 29.9611 46.04L27.0111 43.09M30.5711 46.64C31.4011 47.47 32.7411 47.47 33.5711 46.64C34.4011 45.81 34.4011 44.47 33.5711 43.64M30.2811 40.35L34.1811 44.25C35.0111 45.08 36.3511 45.08 37.1811 44.25C38.0111 43.42 38.0111 42.08 37.1811 41.25M33.6911 37.76L37.7911 41.86C38.6211 42.69 39.9611 42.69 40.7911 41.86C41.6211 41.03 41.6211 39.69 40.7911 38.86L34.8511 32.92M16.1111 39.8C16.9411 38.97 16.9411 37.63 16.1111 36.8C15.2811 35.97 13.9411 35.97 13.1111 36.8L11.3811 38.53C10.5511 39.36 10.5511 40.7 11.3811 41.53C12.2111 42.36 13.5511 42.36 14.3811 41.53M16.1111 39.8L14.3811 41.53M16.1111 39.8C16.9411 38.97 18.2811 38.97 19.1111 39.8C19.9411 40.63 19.9411 41.97 19.1111 42.8M14.3811 41.53C13.5511 42.36 13.5511 43.7 14.3811 44.53C15.2111 45.36 16.5511 45.36 17.3811 44.53M19.1111 42.8L17.3811 44.53M19.1111 42.8C19.9411 41.97 21.2811 41.97 22.1111 42.8C22.9411 43.63 22.9411 44.97 22.1111 45.8M17.3811 44.53C16.5511 45.36 16.5511 46.7 17.3811 47.53C18.2111 48.36 19.5511 48.36 20.3811 47.53M22.1111 45.8L20.3811 47.53M22.1111 45.8C22.9411 44.97 24.2811 44.97 25.1111 45.8C25.9411 46.63 25.9411 47.97 25.1111 48.8L23.3811 50.53C22.5511 51.36 21.2111 51.36 20.3811 50.53C19.5511 49.7 19.5511 48.36 20.3811 47.53M23.2111 10.47L24.7211 11.98L28.8011 7.9M45.4311 21C45.0311 20.14 44.0011 19.77 43.1411 20.17L40.4111 21.44C39.5511 21.84 39.1811 22.87 39.5811 23.73L44.9911 35.33C45.3911 36.19 46.4211 36.57 47.2811 36.16L50.0111 34.89C50.8711 34.49 51.2411 33.46 50.8411 32.6L45.4311 20.99V21ZM1.16114 32.61C0.761135 33.47 1.13114 34.5 1.99114 34.9L4.72114 36.17C5.58114 36.57 6.61114 36.2 7.01114 35.34L12.4211 23.74C12.8211 22.88 12.4411 21.85 11.5911 21.45L8.86114 20.18C8.00113 19.78 6.97114 20.16 6.57114 21.01L1.16114 32.62V32.61ZM26.0011 1C21.0611 1 17.0611 5 17.0611 9.94C17.0611 14.88 21.0611 18.88 26.0011 18.88C30.9411 18.88 34.9411 14.88 34.9411 9.94C34.9411 5 30.9411 1 26.0011 1Z" stroke="#F5F5F5" strokeWidth="2" strokeLinecap="round" strokeLinejoin="round"/>
<path d="M39.5411 30.72L34.8011 32.83C30.0711 34.95 25.0911 30.18 25.0911 30.18L21.7011 32.01C17.5411 34.45 15.7411 31.13 16.3911 30.57C16.7011 30.3 21.9911 25.55 23.5111 24.16C25.0411 22.77 26.0511 22.97 26.4811 22.97C26.9111 22.97 28.8211 23.26 33.0811 24.12C35.9311 24.7 38.3011 24.14 39.5711 23.71M12.6511 23.23L14.6111 24.19C14.6111 24.19 20.0011 24.16 21.2811 24.59L22.5711 25.02M6.79114 35.72L11.3111 38.63M45.2111 35.72L40.4611 38.53M25.7311 47.81L26.9611 49.04C27.7911 49.87 29.1311 49.87 29.9611 49.04C30.7911 48.21 30.7911 46.87 29.9611 46.04L27.0111 43.09M30.5711 46.64C31.4011 47.47 32.7411 47.47 33.5711 46.64C34.4011 45.81 34.4011 44.47 33.5711 43.64M30.2811 40.35L34.1811 44.25C35.0111 45.08 36.3511 45.08 37.1811 44.25C38.0111 43.42 38.0111 42.08 37.1811 41.25M33.6911 37.76L37.7911 41.86C38.6211 42.69 39.9611 42.69 40.7911 41.86C41.6211 41.03 41.6211 39.69 40.7911 38.86L34.8511 32.92M16.1111 39.8C16.9411 38.97 16.9411 37.63 16.1111 36.8C15.2811 35.97 13.9411 35.97 13.1111 36.8L11.3811 38.53C10.5511 39.36 10.5511 40.7 11.3811 41.53C12.2111 42.36 13.5511 42.36 14.3811 41.53M16.1111 39.8L14.3811 41.53M16.1111 39.8C16.9411 38.97 18.2811 38.97 19.1111 39.8C19.9411 40.63 19.9411 41.97 19.1111 42.8M14.3811 41.53C13.5511 42.36 13.5511 43.7 14.3811 44.53C15.2111 45.36 16.5511 45.36 17.3811 44.53M19.1111 42.8L17.3811 44.53M19.1111 42.8C19.9411 41.97 21.2811 41.97 22.1111 42.8C22.9411 43.63 22.9411 44.97 22.1111 45.8M17.3811 44.53C16.5511 45.36 16.5511 46.7 17.3811 47.53C18.2111 48.36 19.5511 48.36 20.3811 47.53M22.1111 45.8L20.3811 47.53M22.1111 45.8C22.9411 44.97 24.2811 44.97 25.1111 45.8C25.9411 46.63 25.9411 47.97 25.1111 48.8L23.3811 50.53C22.5511 51.36 21.2111 51.36 20.3811 50.53C19.5511 49.7 19.5511 48.36 20.3811 47.53M23.2111 10.47L24.7211 11.98L28.8011 7.9M45.4311 21C45.0311 20.14 44.0011 19.77 43.1411 20.17L40.4111 21.44C39.5511 21.84 39.1811 22.87 39.5811 23.73L44.9911 35.33C45.3911 36.19 46.4211 36.57 47.2811 36.16L50.0111 34.89C50.8711 34.49 51.2411 33.46 50.8411 32.6L45.4311 20.99V21ZM1.16114 32.61C0.761135 33.47 1.13114 34.5 1.99114 34.9L4.72114 36.17C5.58114 36.57 6.61114 36.2 7.01114 35.34L12.4211 23.74C12.8211 22.88 12.4411 21.85 11.5911 21.45L8.86114 20.18C8.00113 19.78 6.97114 20.16 6.57114 21.01L1.16114 32.62V32.61ZM26.0011 1C21.0611 1 17.0611 5 17.0611 9.94C17.0611 14.88 21.0611 18.88 26.0011 18.88C30.9411 18.88 34.9411 14.88 34.9411 9.94C34.9411 5 30.9411 1 26.0011 1Z" stroke="url(#paint0_linear_3074_21262)" strokeWidth="2" strokeLinecap="round" strokeLinejoin="round"/>
<defs>
<linearGradient id="paint0_linear_3074_21262" x1="0.999997" y1="102.518" x2="-36.1782" y2="75.8603" gradientUnits="userSpaceOnUse">
<stop stop-color="#7752E4"/>
<stop offset="0.372318" stop-color="#458CF7"/>
<stop offset="0.596085" stop-color="#4643FF"/>
<stop offset="0.931927" stop-color="#911EDA"/>
</linearGradient>
</defs>
</svg>
