<svg width="49" height="50" viewBox="0 0 49 50" fill="none" xmlns="http://www.w3.org/2000/svg">
<g clip-path="url(#clip0_3074_21258)">
<path d="M11.9161 38.2494L8.81325 33.7206L3.88916 25.4802C3.56153 24.7013 2.66537 24.3167 1.88483 24.634C1.51866 24.7782 1.22957 25.0667 1.07539 25.4321C0.921216 25.8071 0.921216 26.2302 1.08503 26.6148L4.81423 35.6244C5.05514 36.2013 5.39241 36.7206 5.83567 37.1532L11.4536 42.759C11.945 43.2494 12.2823 43.8648 12.4365 44.5379L12.5232 44.9321H18.9505L17.6978 38.9609C17.5918 38.4706 17.3509 38.0186 16.9847 37.6532L11.1452 31.8167C10.5381 31.2109 9.57451 31.2013 8.9867 31.7879C8.70725 32.0667 8.55307 32.4513 8.55307 32.8552C8.55307 33.0571 8.60126 33.2494 8.66871 33.4321L8.68798 33.4802C8.76507 33.6532 8.87107 33.8071 9.00598 33.9513L12.6195 37.5571M36.3727 37.4802L39.9863 33.8744C40.1212 33.7398 40.2272 33.5763 40.3043 33.4032L40.3236 33.3552C40.4007 33.1725 40.4392 32.9802 40.4392 32.7782C40.4392 32.3744 40.2947 31.9898 40.0056 31.7109C39.4178 31.1244 38.4445 31.134 37.8471 31.7398L32.0076 37.5763C31.651 37.9321 31.4005 38.384 31.2945 38.884L30.0418 44.8552H36.4691L36.5558 44.4609C36.71 43.7782 37.0473 43.1629 37.5387 42.6821L43.1566 37.0763C43.5999 36.634 43.9371 36.1244 44.1781 35.5475L47.9073 26.5379C48.0711 26.1532 48.0711 25.7398 47.9169 25.3648C47.7627 24.9994 47.4736 24.7109 47.1075 24.5667C46.3269 24.2494 45.4308 24.634 45.1031 25.4129L40.179 33.6532M9.18906 49.0379V45.1725H21.5041V49.0379M27.0353 48.8071V44.9417M27.0353 44.9321H39.3503V48.7975M21.4656 17.1629L23.1519 18.8456L27.5267 14.4802M38.7818 13.4706C36.3631 13.4706 35.1489 10.5475 36.8642 8.83594C37.4231 8.27825 37.4231 7.35517 36.8642 6.79748L34.3781 4.32632C33.8192 3.76863 32.8941 3.76863 32.3352 4.32632C30.6199 6.03786 27.6905 4.82632 27.6905 2.40325C27.6905 1.61478 27.0449 0.960938 26.2451 0.960938H22.7375C21.9474 0.960938 21.2921 1.61478 21.2921 2.40325C21.2921 4.81671 18.3627 6.02825 16.6475 4.32632C16.0886 3.76863 15.1635 3.76863 14.595 4.32632L12.1185 6.79748C11.5596 7.36478 11.5596 8.27825 12.1185 8.83594C13.8337 10.5475 12.6195 13.4706 10.1912 13.4706C9.40106 13.4706 8.7458 14.1244 8.7458 14.9129V18.4129C8.7458 19.2109 9.40106 19.8552 10.1912 19.8552C12.6195 19.8552 13.8241 22.7782 12.1185 24.4898C11.5596 25.0571 11.5596 25.9706 12.1185 26.5282L14.595 28.9994C15.1635 29.5667 16.0789 29.5667 16.6475 28.9994C18.3627 27.2879 21.2921 28.4994 21.2921 30.9129C21.2921 31.7109 21.9377 32.3648 22.7375 32.3648H26.2451C27.0449 32.3648 27.6905 31.7109 27.6905 30.9129C27.6905 28.4994 30.6199 27.2879 32.3352 28.9994C32.8941 29.5667 33.8192 29.5667 34.3781 28.9994L36.8642 26.5282C37.4231 25.9706 37.4231 25.0475 36.8642 24.4898C35.1489 22.7782 36.3631 19.8552 38.7818 19.8552C39.572 19.8552 40.2272 19.2109 40.2272 18.4129V14.9129C40.2272 14.1244 39.572 13.4706 38.7818 13.4706ZM24.4913 8.82632C20.155 8.82632 16.6378 12.3359 16.6378 16.6629C16.6378 20.9898 20.155 24.4994 24.4913 24.4994C28.8276 24.4994 32.3448 20.9898 32.3448 16.6629C32.3448 12.3359 28.8276 8.82632 24.4913 8.82632Z" stroke="#F5F5F5" strokeWidth="2" strokeLinecap="round" strokeLinejoin="round"/>
<path d="M11.9161 38.2494L8.81325 33.7206L3.88916 25.4802C3.56153 24.7013 2.66537 24.3167 1.88483 24.634C1.51866 24.7782 1.22957 25.0667 1.07539 25.4321C0.921216 25.8071 0.921216 26.2302 1.08503 26.6148L4.81423 35.6244C5.05514 36.2013 5.39241 36.7206 5.83567 37.1532L11.4536 42.759C11.945 43.2494 12.2823 43.8648 12.4365 44.5379L12.5232 44.9321H18.9505L17.6978 38.9609C17.5918 38.4706 17.3509 38.0186 16.9847 37.6532L11.1452 31.8167C10.5381 31.2109 9.57451 31.2013 8.9867 31.7879C8.70725 32.0667 8.55307 32.4513 8.55307 32.8552C8.55307 33.0571 8.60126 33.2494 8.66871 33.4321L8.68798 33.4802C8.76507 33.6532 8.87107 33.8071 9.00598 33.9513L12.6195 37.5571M36.3727 37.4802L39.9863 33.8744C40.1212 33.7398 40.2272 33.5763 40.3043 33.4032L40.3236 33.3552C40.4007 33.1725 40.4392 32.9802 40.4392 32.7782C40.4392 32.3744 40.2947 31.9898 40.0056 31.7109C39.4178 31.1244 38.4445 31.134 37.8471 31.7398L32.0076 37.5763C31.651 37.9321 31.4005 38.384 31.2945 38.884L30.0418 44.8552H36.4691L36.5558 44.4609C36.71 43.7782 37.0473 43.1629 37.5387 42.6821L43.1566 37.0763C43.5999 36.634 43.9371 36.1244 44.1781 35.5475L47.9073 26.5379C48.0711 26.1532 48.0711 25.7398 47.9169 25.3648C47.7627 24.9994 47.4736 24.7109 47.1075 24.5667C46.3269 24.2494 45.4308 24.634 45.1031 25.4129L40.179 33.6532M9.18906 49.0379V45.1725H21.5041V49.0379M27.0353 48.8071V44.9417M27.0353 44.9321H39.3503V48.7975M21.4656 17.1629L23.1519 18.8456L27.5267 14.4802M38.7818 13.4706C36.3631 13.4706 35.1489 10.5475 36.8642 8.83594C37.4231 8.27825 37.4231 7.35517 36.8642 6.79748L34.3781 4.32632C33.8192 3.76863 32.8941 3.76863 32.3352 4.32632C30.6199 6.03786 27.6905 4.82632 27.6905 2.40325C27.6905 1.61478 27.0449 0.960938 26.2451 0.960938H22.7375C21.9474 0.960938 21.2921 1.61478 21.2921 2.40325C21.2921 4.81671 18.3627 6.02825 16.6475 4.32632C16.0886 3.76863 15.1635 3.76863 14.595 4.32632L12.1185 6.79748C11.5596 7.36478 11.5596 8.27825 12.1185 8.83594C13.8337 10.5475 12.6195 13.4706 10.1912 13.4706C9.40106 13.4706 8.7458 14.1244 8.7458 14.9129V18.4129C8.7458 19.2109 9.40106 19.8552 10.1912 19.8552C12.6195 19.8552 13.8241 22.7782 12.1185 24.4898C11.5596 25.0571 11.5596 25.9706 12.1185 26.5282L14.595 28.9994C15.1635 29.5667 16.0789 29.5667 16.6475 28.9994C18.3627 27.2879 21.2921 28.4994 21.2921 30.9129C21.2921 31.7109 21.9377 32.3648 22.7375 32.3648H26.2451C27.0449 32.3648 27.6905 31.7109 27.6905 30.9129C27.6905 28.4994 30.6199 27.2879 32.3352 28.9994C32.8941 29.5667 33.8192 29.5667 34.3781 28.9994L36.8642 26.5282C37.4231 25.9706 37.4231 25.0475 36.8642 24.4898C35.1489 22.7782 36.3631 19.8552 38.7818 19.8552C39.572 19.8552 40.2272 19.2109 40.2272 18.4129V14.9129C40.2272 14.1244 39.572 13.4706 38.7818 13.4706ZM24.4913 8.82632C20.155 8.82632 16.6378 12.3359 16.6378 16.6629C16.6378 20.9898 20.155 24.4994 24.4913 24.4994C28.8276 24.4994 32.3448 20.9898 32.3448 16.6629C32.3448 12.3359 28.8276 8.82632 24.4913 8.82632Z" stroke="url(#paint0_linear_3074_21258)" strokeWidth="2" strokeLinecap="round" strokeLinejoin="round"/>
</g>
<defs>
<linearGradient id="paint0_linear_3074_21258" x1="0.960934" y1="98.2779" x2="-34.4663" y2="73.3324" gradientUnits="userSpaceOnUse">
<stop stop-color="#7752E4"/>
<stop offset="0.372318" stop-color="#458CF7"/>
<stop offset="0.596085" stop-color="#4643FF"/>
<stop offset="0.931927" stop-color="#911EDA"/>
</linearGradient>
<clipPath id="clip0_3074_21258">
<rect width="49" height="50" fill="white"/>
</clipPath>
</defs>
</svg>
