<svg width="50" height="50" viewBox="0 0 50 50" fill="none" xmlns="http://www.w3.org/2000/svg">
<path d="M26.4541 7.77432L26.3047 17.2418C26.3047 17.2418 26.3047 17.2048 26.286 17.1493C26.2673 17.0846 26.2487 17.0014 26.23 16.8812C26.1739 16.6408 26.0992 16.2987 25.9872 15.8549V15.8364H25.9685C25.3614 15.8364 24.5676 15.8457 23.5963 15.8549H23.5683V15.8827C23.4749 16.2987 23.3722 16.7702 23.2694 17.2695L23.2974 17.2418C22.8305 17.3712 22.3448 17.5654 21.8685 17.852H21.9152C21.5323 17.6208 21.1214 17.3712 20.6918 17.1123L20.6544 17.0938L20.6264 17.1216C20.1034 17.6486 19.5524 18.2126 18.9734 18.8043L18.9453 18.8413L18.9734 18.8782C19.2162 19.2481 19.4777 19.6549 19.7579 20.0617V19.9969C19.515 20.413 19.3096 20.903 19.1788 21.43L19.2255 21.3838C18.7959 21.4855 18.3196 21.5964 17.834 21.7166H17.7873V21.7813C17.7966 22.521 17.806 23.3069 17.8246 24.1205V24.1759L17.8807 24.1852C18.3196 24.2776 18.7959 24.3793 19.2816 24.481L19.2255 24.4348C19.3563 24.8971 19.5617 25.3964 19.8419 25.8586V25.7847C19.6084 26.1637 19.3563 26.5798 19.0948 26.9958L19.0668 27.0421L19.1041 27.079C19.6458 27.5968 20.2155 28.1515 20.8039 28.7155L20.8412 28.7525L20.8879 28.7248C21.2708 28.4844 21.6724 28.2163 22.0833 27.9481H22.0086C22.4382 28.1885 22.9426 28.3919 23.4562 28.5214L23.4002 28.4659C23.5122 28.9282 23.6243 29.3904 23.7364 29.8435V29.8989H23.8111C24.6143 29.8897 25.3988 29.8712 26.1739 29.862H26.23L26.2393 29.8065C26.342 29.3442 26.4354 28.8819 26.5288 28.4197L26.4821 28.4751C26.9865 28.3364 27.4721 28.1238 27.911 27.8557H27.8363C28.2473 28.1053 28.6582 28.3457 29.0598 28.5953L29.1065 28.6231L29.1438 28.5861C29.7042 28.0129 30.2552 27.4489 30.7875 26.9034L30.8249 26.8664L30.7969 26.8202C30.5354 26.4134 30.2739 26.0251 30.0124 25.6367V25.7015C30.2739 25.2392 30.47 24.7584 30.5914 24.2684L30.5447 24.3146C31.021 24.2037 31.4786 24.0835 31.9363 23.9818H31.983V23.9263C31.9643 23.1035 31.9549 22.3268 31.9456 21.5872V21.541H31.8989C31.4039 21.4393 30.9463 21.3468 30.498 21.2543L30.5354 21.2913C30.3859 20.7643 30.1618 20.2928 29.9096 19.8768V19.923C30.1805 19.4792 30.4233 19.0816 30.6474 18.7118L30.6661 18.6841L30.6381 18.6563C29.975 18.0276 29.4147 17.4914 28.929 17.0291L28.9103 17.0106L28.8917 17.0291C28.4154 17.3435 28.0231 17.6023 27.6962 17.815H27.7243C27.2666 17.5654 26.8931 17.4359 26.6502 17.362C26.5288 17.325 26.4354 17.3065 26.3701 17.288C26.314 17.2788 26.2767 17.2695 26.2767 17.2695M38.4457 17.9907C37.0915 13.7285 33.7107 10.3446 29.424 8.95775M11.9969 27.5321C12.6507 29.298 13.2764 30.0561 15.0042 31.5816C15.0042 31.5816 18.8893 34.7066 18.5905 41.3265H31.5907C31.5907 41.3265 31.4413 34.6974 34.6447 32.3028C36.3631 31.0084 37.4278 29.7603 38.1095 27.4489M20.3929 9.50324C16.1903 10.8993 12.8748 14.2092 11.5019 18.3882M19.5244 41.3265V43.6471C19.5244 44.4607 20.1875 45.1171 21.0093 45.1171H29.2839C30.1058 45.1171 30.7689 44.4607 30.7689 43.6471V41.3265M21.4109 45.1264V48.1497H28.8823V45.1264M7.00976 19.9692L8.38263 21.3283H15.5178M15.5178 24.5458H8.38263L7.00976 25.9049M34.5326 21.0787H41.6678L43.0407 19.7196M43.0313 25.646L41.6584 24.2869H34.5232M23.3348 13.4788V6.41522L21.9619 5.05612M27.9577 5.05612L26.5849 6.41522V13.4788M24.8945 19.9137C23.2507 19.9137 21.9152 21.2359 21.9152 22.8631C21.9152 24.4903 23.2507 25.8124 24.8945 25.8124C26.5382 25.8124 27.8737 24.4903 27.8737 22.8631C27.8737 21.2359 26.5382 19.9137 24.8945 19.9137ZM5.74896 17.0569C4.78702 17.0569 4.00252 17.8335 4.00252 18.7858C4.00252 19.7381 4.78702 20.5147 5.74896 20.5147C6.7109 20.5147 7.4954 19.7381 7.4954 18.7858C7.4954 17.8335 6.7109 17.0569 5.74896 17.0569ZM5.59019 25.2207C4.62825 25.2207 3.84375 25.9973 3.84375 26.9496C3.84375 27.9019 4.62825 28.6785 5.59019 28.6785C6.55214 28.6785 7.33664 27.9019 7.33664 26.9496C7.33664 25.9973 6.55214 25.2207 5.59019 25.2207ZM42.555 18.5362C42.555 19.4884 43.3395 20.2651 44.3015 20.2651C45.2634 20.2651 46.0479 19.4884 46.0479 18.5362C46.0479 17.5839 45.2634 16.8072 44.3015 16.8072C43.3395 16.8072 42.555 17.5839 42.555 18.5362ZM42.7138 26.7C42.7138 27.6523 43.4983 28.4289 44.4602 28.4289C45.4222 28.4289 46.2067 27.6523 46.2067 26.7C46.2067 25.7477 45.4222 24.9711 44.4602 24.9711C43.4983 24.9711 42.7138 25.7477 42.7138 26.7ZM20.7665 5.53689C21.7284 5.53689 22.5129 4.76026 22.5129 3.80797C22.5129 2.85568 21.7284 2.07905 20.7665 2.07905C19.8046 2.07905 19.0201 2.85568 19.0201 3.80797C19.0201 4.76026 19.8046 5.53689 20.7665 5.53689ZM29.0131 5.37972C29.975 5.37972 30.7595 4.60309 30.7595 3.6508C30.7595 2.6985 29.975 1.92188 29.0131 1.92188C28.0511 1.92188 27.2666 2.6985 27.2666 3.6508C27.2666 4.60309 28.0511 5.37972 29.0131 5.37972Z" stroke="#F5F5F5" strokeWidth="1.92308" strokeLinecap="round" strokeLinejoin="round"/>
<path d="M26.4541 7.77432L26.3047 17.2418C26.3047 17.2418 26.3047 17.2048 26.286 17.1493C26.2673 17.0846 26.2487 17.0014 26.23 16.8812C26.1739 16.6408 26.0992 16.2987 25.9872 15.8549V15.8364H25.9685C25.3614 15.8364 24.5676 15.8457 23.5963 15.8549H23.5683V15.8827C23.4749 16.2987 23.3722 16.7702 23.2694 17.2695L23.2974 17.2418C22.8305 17.3712 22.3448 17.5654 21.8685 17.852H21.9152C21.5323 17.6208 21.1214 17.3712 20.6918 17.1123L20.6544 17.0938L20.6264 17.1216C20.1034 17.6486 19.5524 18.2126 18.9734 18.8043L18.9453 18.8413L18.9734 18.8782C19.2162 19.2481 19.4777 19.6549 19.7579 20.0617V19.9969C19.515 20.413 19.3096 20.903 19.1788 21.43L19.2255 21.3838C18.7959 21.4855 18.3196 21.5964 17.834 21.7166H17.7873V21.7813C17.7966 22.521 17.806 23.3069 17.8246 24.1205V24.1759L17.8807 24.1852C18.3196 24.2776 18.7959 24.3793 19.2816 24.481L19.2255 24.4348C19.3563 24.8971 19.5617 25.3964 19.8419 25.8586V25.7847C19.6084 26.1637 19.3563 26.5798 19.0948 26.9958L19.0668 27.0421L19.1041 27.079C19.6458 27.5968 20.2155 28.1515 20.8039 28.7155L20.8412 28.7525L20.8879 28.7248C21.2708 28.4844 21.6724 28.2163 22.0833 27.9481H22.0086C22.4382 28.1885 22.9426 28.3919 23.4562 28.5214L23.4002 28.4659C23.5122 28.9282 23.6243 29.3904 23.7364 29.8435V29.8989H23.8111C24.6143 29.8897 25.3988 29.8712 26.1739 29.862H26.23L26.2393 29.8065C26.342 29.3442 26.4354 28.8819 26.5288 28.4197L26.4821 28.4751C26.9865 28.3364 27.4721 28.1238 27.911 27.8557H27.8363C28.2473 28.1053 28.6582 28.3457 29.0598 28.5953L29.1065 28.6231L29.1438 28.5861C29.7042 28.0129 30.2552 27.4489 30.7875 26.9034L30.8249 26.8664L30.7969 26.8202C30.5354 26.4134 30.2739 26.0251 30.0124 25.6367V25.7015C30.2739 25.2392 30.47 24.7584 30.5914 24.2684L30.5447 24.3146C31.021 24.2037 31.4786 24.0835 31.9363 23.9818H31.983V23.9263C31.9643 23.1035 31.9549 22.3268 31.9456 21.5872V21.541H31.8989C31.4039 21.4393 30.9463 21.3468 30.498 21.2543L30.5354 21.2913C30.3859 20.7643 30.1618 20.2928 29.9096 19.8768V19.923C30.1805 19.4792 30.4233 19.0816 30.6474 18.7118L30.6661 18.6841L30.6381 18.6563C29.975 18.0276 29.4147 17.4914 28.929 17.0291L28.9103 17.0106L28.8917 17.0291C28.4154 17.3435 28.0231 17.6023 27.6962 17.815H27.7243C27.2666 17.5654 26.8931 17.4359 26.6502 17.362C26.5288 17.325 26.4354 17.3065 26.3701 17.288C26.314 17.2788 26.2767 17.2695 26.2767 17.2695M38.4457 17.9907C37.0915 13.7285 33.7107 10.3446 29.424 8.95775M11.9969 27.5321C12.6507 29.298 13.2764 30.0561 15.0042 31.5816C15.0042 31.5816 18.8893 34.7066 18.5905 41.3265H31.5907C31.5907 41.3265 31.4413 34.6974 34.6447 32.3028C36.3631 31.0084 37.4278 29.7603 38.1095 27.4489M20.3929 9.50324C16.1903 10.8993 12.8748 14.2092 11.5019 18.3882M19.5244 41.3265V43.6471C19.5244 44.4607 20.1875 45.1171 21.0093 45.1171H29.2839C30.1058 45.1171 30.7689 44.4607 30.7689 43.6471V41.3265M21.4109 45.1264V48.1497H28.8823V45.1264M7.00976 19.9692L8.38263 21.3283H15.5178M15.5178 24.5458H8.38263L7.00976 25.9049M34.5326 21.0787H41.6678L43.0407 19.7196M43.0313 25.646L41.6584 24.2869H34.5232M23.3348 13.4788V6.41522L21.9619 5.05612M27.9577 5.05612L26.5849 6.41522V13.4788M24.8945 19.9137C23.2507 19.9137 21.9152 21.2359 21.9152 22.8631C21.9152 24.4903 23.2507 25.8124 24.8945 25.8124C26.5382 25.8124 27.8737 24.4903 27.8737 22.8631C27.8737 21.2359 26.5382 19.9137 24.8945 19.9137ZM5.74896 17.0569C4.78702 17.0569 4.00252 17.8335 4.00252 18.7858C4.00252 19.7381 4.78702 20.5147 5.74896 20.5147C6.7109 20.5147 7.4954 19.7381 7.4954 18.7858C7.4954 17.8335 6.7109 17.0569 5.74896 17.0569ZM5.59019 25.2207C4.62825 25.2207 3.84375 25.9973 3.84375 26.9496C3.84375 27.9019 4.62825 28.6785 5.59019 28.6785C6.55214 28.6785 7.33664 27.9019 7.33664 26.9496C7.33664 25.9973 6.55214 25.2207 5.59019 25.2207ZM42.555 18.5362C42.555 19.4884 43.3395 20.2651 44.3015 20.2651C45.2634 20.2651 46.0479 19.4884 46.0479 18.5362C46.0479 17.5839 45.2634 16.8072 44.3015 16.8072C43.3395 16.8072 42.555 17.5839 42.555 18.5362ZM42.7138 26.7C42.7138 27.6523 43.4983 28.4289 44.4602 28.4289C45.4222 28.4289 46.2067 27.6523 46.2067 26.7C46.2067 25.7477 45.4222 24.9711 44.4602 24.9711C43.4983 24.9711 42.7138 25.7477 42.7138 26.7ZM20.7665 5.53689C21.7284 5.53689 22.5129 4.76026 22.5129 3.80797C22.5129 2.85568 21.7284 2.07905 20.7665 2.07905C19.8046 2.07905 19.0201 2.85568 19.0201 3.80797C19.0201 4.76026 19.8046 5.53689 20.7665 5.53689ZM29.0131 5.37972C29.975 5.37972 30.7595 4.60309 30.7595 3.6508C30.7595 2.6985 29.975 1.92188 29.0131 1.92188C28.0511 1.92188 27.2666 2.6985 27.2666 3.6508C27.2666 4.60309 28.0511 5.37972 29.0131 5.37972Z" stroke="url(#paint0_linear_3074_21263)" strokeWidth="1.92308" strokeLinecap="round" strokeLinejoin="round"/>
<defs>
<linearGradient id="paint0_linear_3074_21263" x1="3.84375" y1="95.4959" x2="-29.4062" y2="73.5821" gradientUnits="userSpaceOnUse">
<stop stop-color="#7752E4"/>
<stop offset="0.372318" stop-color="#458CF7"/>
<stop offset="0.596085" stop-color="#4643FF"/>
<stop offset="0.931927" stop-color="#911EDA"/>
</linearGradient>
</defs>
</svg>
