<svg width="52" height="52" viewBox="0 0 52 52" fill="none" xmlns="http://www.w3.org/2000/svg">
<path d="M26 1V7.62M37.03 1V7.62M14.97 1V7.62M26 44.38V51M37.03 44.38V51M14.97 44.38V51M51 26H44.38M51 37.03H44.38M51 14.97H44.38M7.62 26H1M7.62 37.03H1M7.62 14.97H1M44.38 39.84C44.38 42.34 42.33 44.39 39.83 44.39H12.16C9.66 44.39 7.61 42.34 7.61 39.84V12.16C7.61 9.66 9.66 7.61 12.16 7.61H39.83C42.33 7.61 44.38 9.66 44.38 12.16V39.83V39.84ZM37.67 23.39C35.69 23.39 34.7 21 36.1 19.6C36.56 19.14 36.56 18.39 36.1 17.93L34.07 15.9C33.61 15.44 32.86 15.44 32.4 15.9C31 17.3 28.61 16.31 28.61 14.33C28.61 13.68 28.08 13.15 27.43 13.15H24.56C23.91 13.15 23.38 13.68 23.38 14.33C23.38 16.31 20.99 17.3 19.59 15.9C19.13 15.44 18.38 15.44 17.92 15.9L15.89 17.93C15.43 18.39 15.43 19.14 15.89 19.6C17.29 21 16.3 23.39 14.32 23.39C13.67 23.39 13.14 23.92 13.14 24.57V27.44C13.14 28.09 13.67 28.62 14.32 28.62C16.3 28.62 17.29 31.01 15.89 32.41C15.43 32.87 15.43 33.62 15.89 34.08L17.92 36.11C18.38 36.57 19.13 36.57 19.59 36.11C20.99 34.71 23.38 35.7 23.38 37.68C23.38 38.33 23.91 38.86 24.56 38.86H27.43C28.08 38.86 28.61 38.33 28.61 37.68C28.61 35.7 31 34.71 32.4 36.11C32.86 36.57 33.61 36.57 34.07 36.11L36.1 34.08C36.56 33.62 36.56 32.87 36.1 32.41C34.7 31.01 35.69 28.62 37.67 28.62C38.32 28.62 38.85 28.09 38.85 27.44V24.57C38.85 23.92 38.32 23.39 37.67 23.39ZM26 21.75C23.65 21.75 21.75 23.65 21.75 26C21.75 28.35 23.65 30.25 26 30.25C28.35 30.25 30.25 28.35 30.25 26C30.25 23.65 28.35 21.75 26 21.75Z" stroke="#F5F5F5" strokeWidth="2" strokeLinecap="round" strokeLinejoin="round"/>
<path d="M26 1V7.62M37.03 1V7.62M14.97 1V7.62M26 44.38V51M37.03 44.38V51M14.97 44.38V51M51 26H44.38M51 37.03H44.38M51 14.97H44.38M7.62 26H1M7.62 37.03H1M7.62 14.97H1M44.38 39.84C44.38 42.34 42.33 44.39 39.83 44.39H12.16C9.66 44.39 7.61 42.34 7.61 39.84V12.16C7.61 9.66 9.66 7.61 12.16 7.61H39.83C42.33 7.61 44.38 9.66 44.38 12.16V39.83V39.84ZM37.67 23.39C35.69 23.39 34.7 21 36.1 19.6C36.56 19.14 36.56 18.39 36.1 17.93L34.07 15.9C33.61 15.44 32.86 15.44 32.4 15.9C31 17.3 28.61 16.31 28.61 14.33C28.61 13.68 28.08 13.15 27.43 13.15H24.56C23.91 13.15 23.38 13.68 23.38 14.33C23.38 16.31 20.99 17.3 19.59 15.9C19.13 15.44 18.38 15.44 17.92 15.9L15.89 17.93C15.43 18.39 15.43 19.14 15.89 19.6C17.29 21 16.3 23.39 14.32 23.39C13.67 23.39 13.14 23.92 13.14 24.57V27.44C13.14 28.09 13.67 28.62 14.32 28.62C16.3 28.62 17.29 31.01 15.89 32.41C15.43 32.87 15.43 33.62 15.89 34.08L17.92 36.11C18.38 36.57 19.13 36.57 19.59 36.11C20.99 34.71 23.38 35.7 23.38 37.68C23.38 38.33 23.91 38.86 24.56 38.86H27.43C28.08 38.86 28.61 38.33 28.61 37.68C28.61 35.7 31 34.71 32.4 36.11C32.86 36.57 33.61 36.57 34.07 36.11L36.1 34.08C36.56 33.62 36.56 32.87 36.1 32.41C34.7 31.01 35.69 28.62 37.67 28.62C38.32 28.62 38.85 28.09 38.85 27.44V24.57C38.85 23.92 38.32 23.39 37.67 23.39ZM26 21.75C23.65 21.75 21.75 23.65 21.75 26C21.75 28.35 23.65 30.25 26 30.25C28.35 30.25 30.25 28.35 30.25 26C30.25 23.65 28.35 21.75 26 21.75Z" stroke="url(#paint0_linear_3074_21257)" strokeWidth="2" strokeLinecap="round" strokeLinejoin="round"/>
<defs>
<linearGradient id="paint0_linear_3074_21257" x1="0.999997" y1="102.21" x2="-36.1007" y2="75.5272" gradientUnits="userSpaceOnUse">
<stop stop-color="#7752E4"/>
<stop offset="0.372318" stop-color="#458CF7"/>
<stop offset="0.596085" stop-color="#4643FF"/>
<stop offset="0.931927" stop-color="#911EDA"/>
</linearGradient>
</defs>
</svg>
