<svg width="52" height="52" viewBox="0 0 52 52" fill="none" xmlns="http://www.w3.org/2000/svg">
<path d="M32.74 34.44L32.81 32.73C32.81 30.84 32.02 29.13 30.76 27.89C29.49 26.65 27.74 25.89 25.81 25.89C21.94 25.89 18.81 28.95 18.81 32.73V34.49M18.81 34.5H32.74M41.04 31.72L41.09 30.5C41.09 29.15 40.53 27.94 39.63 27.06C38.73 26.18 37.48 25.63 36.1 25.63C33.99 25.63 32.19 26.91 31.47 28.71M41.04 31.75H32.73M20.46 28.32C20.21 27.76 19.85 27.25 19.42 26.83C18.51 25.95 17.27 25.4 15.89 25.4C13.14 25.4 10.9 27.58 10.9 30.27V31.52M18.92 31.53H10.9M4.15 26C4.15 36.38 11.39 45.07 21.1 47.3M4.15 26L7.3 29.15M4.15 26L1 29.15M26 47.85C36.42 47.85 45.14 40.56 47.32 30.8M26 47.85L29.15 44.7M26 47.85L29.15 51M47.85 26C47.85 15.31 40.17 6.41 30.02 4.52M26 4.15C15.67 4.15 7.02 11.32 4.74 20.95M26 4.15L22.85 7.3M26 4.15L22.85 1M44.7 22.89L47.85 26.04L51 22.89M30 21.67C30 23.89 28.16 25.7 25.88 25.7H25.74C23.46 25.7 21.62 23.9 21.62 21.67V21.53C21.62 19.31 23.47 17.5 25.74 17.5H25.88C28.16 17.5 30 19.31 30 21.53V21.67ZM39.1 22.52C39.1 20.93 37.79 19.65 36.16 19.65H36.06C34.44 19.65 33.12 20.93 33.12 22.52V22.61C33.12 24.19 34.43 25.48 36.06 25.48H36.16C37.78 25.48 39.1 24.19 39.1 22.61V22.52ZM18.88 22.3C18.88 20.72 17.57 19.43 15.94 19.43H15.84C14.22 19.43 12.9 20.71 12.9 22.3V22.4C12.9 23.99 14.21 25.27 15.84 25.27H15.94C17.56 25.27 18.88 23.99 18.88 22.4V22.3Z" stroke="#F5F5F5" strokeWidth="2" strokeLinecap="round" strokeLinejoin="round"/>
<path d="M32.74 34.44L32.81 32.73C32.81 30.84 32.02 29.13 30.76 27.89C29.49 26.65 27.74 25.89 25.81 25.89C21.94 25.89 18.81 28.95 18.81 32.73V34.49M18.81 34.5H32.74M41.04 31.72L41.09 30.5C41.09 29.15 40.53 27.94 39.63 27.06C38.73 26.18 37.48 25.63 36.1 25.63C33.99 25.63 32.19 26.91 31.47 28.71M41.04 31.75H32.73M20.46 28.32C20.21 27.76 19.85 27.25 19.42 26.83C18.51 25.95 17.27 25.4 15.89 25.4C13.14 25.4 10.9 27.58 10.9 30.27V31.52M18.92 31.53H10.9M4.15 26C4.15 36.38 11.39 45.07 21.1 47.3M4.15 26L7.3 29.15M4.15 26L1 29.15M26 47.85C36.42 47.85 45.14 40.56 47.32 30.8M26 47.85L29.15 44.7M26 47.85L29.15 51M47.85 26C47.85 15.31 40.17 6.41 30.02 4.52M26 4.15C15.67 4.15 7.02 11.32 4.74 20.95M26 4.15L22.85 7.3M26 4.15L22.85 1M44.7 22.89L47.85 26.04L51 22.89M30 21.67C30 23.89 28.16 25.7 25.88 25.7H25.74C23.46 25.7 21.62 23.9 21.62 21.67V21.53C21.62 19.31 23.47 17.5 25.74 17.5H25.88C28.16 17.5 30 19.31 30 21.53V21.67ZM39.1 22.52C39.1 20.93 37.79 19.65 36.16 19.65H36.06C34.44 19.65 33.12 20.93 33.12 22.52V22.61C33.12 24.19 34.43 25.48 36.06 25.48H36.16C37.78 25.48 39.1 24.19 39.1 22.61V22.52ZM18.88 22.3C18.88 20.72 17.57 19.43 15.94 19.43H15.84C14.22 19.43 12.9 20.71 12.9 22.3V22.4C12.9 23.99 14.21 25.27 15.84 25.27H15.94C17.56 25.27 18.88 23.99 18.88 22.4V22.3Z" stroke="url(#paint0_linear_3074_21260)" strokeWidth="2" strokeLinecap="round" strokeLinejoin="round"/>
<defs>
<linearGradient id="paint0_linear_3074_21260" x1="0.999997" y1="102.21" x2="-36.1007" y2="75.5272" gradientUnits="userSpaceOnUse">
<stop stop-color="#7752E4"/>
<stop offset="0.372318" stop-color="#458CF7"/>
<stop offset="0.596085" stop-color="#4643FF"/>
<stop offset="0.931927" stop-color="#911EDA"/>
</linearGradient>
</defs>
</svg>
