<svg width="165" height="160" viewBox="0 0 165 160" fill="none" xmlns="http://www.w3.org/2000/svg">
<path d="M79.4961 37.2256L67.3047 44.333C66.5863 44.7498 66.1465 45.5172 66.1465 46.3486V60.5645L53.9678 67.6709H53.9668C53.2501 68.09 52.8097 68.8558 52.8096 69.6875V82.7725L24.1709 101.858L79.4961 5.05273V37.2256Z" fill="#5D2E8F" stroke="#D2DFEB"/>
<path d="M139.41 101.858L110.757 82.7695V69.6855C110.757 68.8518 110.314 68.0866 109.612 67.6699L109.609 67.668L97.4199 60.5625V46.3457C97.4199 45.5183 96.9926 44.747 96.2539 44.3281L84.0938 37.2227V5.05469L139.41 101.858Z" fill="#5D2E90" stroke="#D2DFEB"/>
<path d="M92.8047 47.6885V60.5586L81.6523 67.0605H81.6396L81.5225 67.1289L80.7158 67.5996L79.1182 68.5312H79.7715C79.5762 68.8761 79.4678 69.2707 79.4678 69.6816V83.8984L68.1992 90.4678L64.5713 92.5762L63.832 93.0059L64.5693 93.4395L67.2881 95.0371C67.6534 95.2561 68.0626 95.3545 68.4512 95.3545C68.8414 95.3544 69.2527 95.2552 69.6191 95.0342L69.6182 95.0332L81.7861 87.9316L87.5996 91.332L87.8525 91.4795L88.1045 91.332L91.7354 89.2109L92.4746 88.7783L91.7354 88.3467L84.1094 83.8955V71.0254L95.124 64.6025L106.142 71.0254V83.8955L94.9893 90.3975H94.9766L94.8604 90.4648L91.2295 92.5732L90.4873 93.0039L91.2275 93.4375L93.9531 95.0312V95.0322C94.318 95.2523 94.7162 95.3525 95.1211 95.3525C95.5058 95.3525 95.9149 95.2558 96.2715 95.0352L96.2725 95.0361L109.354 87.4209L136.292 105.367H27.2852L54.2197 87.4219L60.9268 91.3369L61.1787 91.4844L61.4307 91.3379L65.0742 89.2158L65.8164 88.7842L65.0742 88.3516L57.4355 83.9004V71.0303L68.4512 64.6084L73.5059 67.5488V67.5498L74.2617 67.9941L74.5146 68.1426L74.7676 67.9951L78.3984 65.874L79.1387 65.4414L78.3984 65.0098L70.7598 60.5586V47.6895L81.7861 41.2656L92.8047 47.6885Z" fill="#5D2E90" stroke="#D2DFEB"/>
<path d="M93.8711 47.1162L93.623 46.9717L82.3535 40.4014V1.87109L83.1748 3.2998V37.793L83.4229 37.9375L95.8369 45.1904L95.8428 45.1943C96.2559 45.4287 96.499 45.8601 96.499 46.3418V61.1328L96.7471 61.2773L109.181 68.5244V68.5254C109.58 68.7626 109.836 69.2014 109.836 69.6807V83.3018L110.059 83.4502L140.596 103.793L141.495 105.368H138.159L109.714 86.418L109.454 86.2451L109.185 86.4023L95.835 94.1787L95.8271 94.1836L95.8193 94.1875C95.6415 94.2998 95.4172 94.3594 95.1875 94.3594C94.952 94.3594 94.7348 94.3025 94.5361 94.1826L94.5303 94.1787L92.5391 93.0137L95.3125 91.4043H95.3252L95.4424 91.3359L106.959 84.6221L107.207 84.4775V70.458L106.959 70.3135L95.4424 63.5986L95.1904 63.4521L94.9385 63.5996L83.4238 70.3135L83.1748 70.458V84.4766L83.4229 84.6221L90.5566 88.7852L87.918 90.3271L82.3535 87.0732V67.8486L93.623 61.2793L93.8711 61.1348V47.1162Z" fill="#BABABB" stroke="#D2DFEB"/>
<path d="M79.4961 37.2227L67.3037 44.3311C66.5859 44.7479 66.1465 45.5147 66.1465 46.3457V60.5625L53.9678 67.668C53.2493 68.085 52.8096 68.8521 52.8096 69.6855V82.7695L24.1709 101.858L79.4961 5.05273V37.2227Z" fill="#69489C" stroke="#D2DFEB"/>
<path d="M81.2988 67.2627L80.7295 67.5947L79.1328 68.5264H79.7842C79.5896 68.871 79.4824 69.2657 79.4824 69.6768V83.8936L68.2129 90.4629L64.5859 92.5703L63.8457 93.001L64.584 93.4346L67.3018 95.0322C67.667 95.2513 68.0762 95.3496 68.4648 95.3496C68.8529 95.3496 69.2611 95.2506 69.626 95.0322L69.627 95.0332L81.3018 88.2188V105.359H27.2969L54.2314 87.4141L60.9385 91.3291L61.1904 91.4766L61.4424 91.3301L65.0859 89.208L65.8281 88.7764L65.0859 88.3438L57.4473 83.8926V71.0225L68.4629 64.6006L73.5176 67.541V67.542L74.2734 67.9863L74.5264 68.1348L74.7793 67.9873L78.4102 65.8662L79.1504 65.4336L78.4102 65.002L70.7715 60.5508V47.6816L81.2988 41.5488V67.2627Z" fill="#69489C" stroke="#D2DFEB"/>
<path d="M81.332 87.0801L69.1533 94.1758L69.1465 94.1797C68.9493 94.2986 68.7197 94.3564 68.4951 94.3564C68.2706 94.3564 68.0409 94.2986 67.8438 94.1797L67.8379 94.1768L65.8584 93.0225L68.748 91.334L68.7471 91.333L80.2646 84.6191L80.5127 84.4746V69.6836C80.5128 69.2177 80.7637 68.771 81.167 68.5342L81.252 68.4922L81.332 68.4502V87.0801Z" fill="white" stroke="#D2DFEB"/>
<path d="M81.3379 40.4014L70.0586 46.9717L69.8105 47.1162V61.1348L70.0586 61.2803L77.2041 65.4443L74.5664 66.9844L74.0645 66.6895L74.0615 66.6875L68.7529 63.5986L68.501 63.4521L68.25 63.5996L56.7344 70.3135L56.4863 70.458V84.4775L56.7354 84.6221L63.8818 88.7852L61.2324 90.3271L54.5078 86.4023L54.2383 86.2451L53.9785 86.418L25.5352 105.368H22.1992L23.0957 103.797L53.623 83.4502L53.8457 83.3018V69.6807C53.8458 69.2015 54.0975 68.7653 54.5059 68.5283L54.5068 68.5273L66.9346 61.2773L67.1826 61.1328V46.3418C67.1826 45.8655 67.4339 45.4286 67.8428 45.1914L67.8438 45.1904L80.2832 37.9375L80.5322 37.793L80.5312 37.5059L80.5186 3.30078L81.3379 1.87402V40.4014Z" fill="white" stroke="#D2DFEB"/>
<path d="M14.5742 120.094C18.1757 120.094 21.0347 120.956 23.2002 122.637L23.624 122.983C25.8177 124.889 26.9297 127.495 26.9297 130.868C26.9296 133.66 26.128 135.94 24.5527 137.744V137.745C22.9716 139.561 20.7992 140.747 17.9941 141.291L17.2666 141.432L17.6699 142.054L28.5908 158.893H26.2725L15.1738 141.874L15.0254 141.647H2.47168V158.893H0.5V120.094H14.5742ZM2.47168 139.813H14.5156C17.7613 139.813 20.3244 139.072 22.1318 137.519C23.9506 135.956 24.8349 133.712 24.835 130.868C24.835 128.024 23.9504 125.775 22.1348 124.189H22.1338C20.3272 122.618 17.7622 121.869 14.5156 121.869H2.47168V139.813Z" fill="#25A1DB" stroke="#D2DFEB"/>
<path d="M36.6592 129.758L45.8496 141.856L46.2549 142.389L46.6514 141.85L55.5449 129.758H57.8574L47.5166 143.491L47.2891 143.793L47.5176 144.095L58.7441 158.906H56.251L46.3496 145.9L45.9482 145.373L45.5508 145.903L35.8242 158.907H33.5127L44.6826 144.272L44.9141 143.97L44.6836 143.667L34.1055 129.758H36.6592Z" fill="#25A1DB" stroke="#D2DFEB"/>
<path d="M61.7061 120.094L72.4922 157.06L72.9141 158.508L73.4404 157.094L83.6094 129.744H86.3701L96.54 157.158L97.0635 158.569L97.4883 157.125L108.391 120.094H110.376L98.4229 158.894H95.4492L85.4619 132.322L85.3398 131.998H84.583L84.4619 132.322L74.4727 158.894H71.499L59.5459 120.094H61.7061Z" fill="#5D2E90" stroke="#D2DFEB"/>
<path d="M121.511 129.148C125.43 129.149 128.456 130.463 130.649 133.068C132.857 135.691 133.982 139.181 133.982 143.602C133.982 144.111 133.959 144.608 133.915 145.093H110.214L110.242 145.619C110.444 149.398 111.551 152.404 113.624 154.587V154.588C115.692 156.777 118.46 157.851 121.866 157.852C124.279 157.852 126.379 157.351 128.157 156.338L128.159 156.337C129.776 155.407 130.99 154.123 131.799 152.488L133.394 153.335C132.339 155.25 130.897 156.733 129.059 157.791C127.086 158.92 124.693 159.502 121.865 159.502C117.58 159.502 114.283 158.155 111.919 155.512C109.542 152.853 108.328 149.148 108.328 144.321C108.328 139.498 109.503 135.79 111.808 133.133V133.132C114.09 130.486 117.303 129.148 121.511 129.148ZM121.511 130.801C118.186 130.8 115.501 131.858 113.525 134.004H113.524C111.56 136.144 110.486 139.113 110.241 142.844L110.206 143.376H132.213L132.184 142.849C131.982 139.155 130.973 136.209 129.121 134.052L128.762 133.655C126.924 131.74 124.489 130.801 121.511 130.801Z" fill="#5D2E90" stroke="#D2DFEB"/>
<path d="M139.925 120.094V135.634L140.886 135.828C141.763 133.744 143.115 132.116 144.951 130.928C146.784 129.74 148.919 129.141 151.374 129.141C155.456 129.141 158.637 130.477 160.964 133.129V133.13C163.302 135.788 164.499 139.495 164.499 144.315C164.499 149.142 163.302 152.849 160.964 155.508C158.637 158.154 155.455 159.495 151.375 159.495C148.804 159.495 146.602 158.862 144.754 157.619L144.412 157.38C142.735 156.159 141.522 154.525 140.778 152.466L139.809 152.622L139.641 158.893H137.953V120.094H139.925ZM151.021 130.793C147.797 130.793 145.156 131.907 143.147 134.155C141.146 136.396 140.088 139.429 139.926 143.207V145.424C140.086 149.208 141.144 152.24 143.147 154.481L143.148 154.482C145.157 156.723 147.797 157.844 151.021 157.844C154.594 157.844 157.44 156.637 159.489 154.198L159.49 154.199C161.535 151.767 162.527 148.456 162.527 144.315C162.527 140.311 161.597 137.072 159.679 134.667L159.49 134.438C157.44 131.999 154.594 130.793 151.021 130.793Z" fill="#5D2E90" stroke="#D2DFEB"/>
</svg>
