<svg width="165" height="160" viewBox="0 0 165 160" fill="none" xmlns="http://www.w3.org/2000/svg">
<path d="M104.871 8.19531C121.499 8.19531 133.217 10.8758 133.311 10.8975V10.8965L133.477 10.9346L133.435 11.1221V11.123C133.383 11.353 128.228 33.9856 119.081 55.0244C109.938 76.0572 97.8761 96.8558 97.75 97.0723V97.0732L97.6162 97.3027L97.4805 97.0742V97.0732L97.1777 96.5762C95.8304 94.3899 90.0232 85.2256 80.3818 73.5615C70.2196 61.2672 53.5876 43.5895 32.0752 29.2188L31.8564 29.0723L32.0654 28.9092C32.2494 28.7651 37.2023 24.9207 46.4355 20.5449C54.94 16.5147 68.8053 11.2894 86.541 9.29883H86.5469C92.4958 8.56711 98.6636 8.19532 104.871 8.19531Z" fill="#333333" stroke="#D2DFEB"/>
<path d="M104.358 7.87012C98.8689 7.88757 92.8382 8.19245 86.4873 8.97266C69.2767 10.9042 55.6234 15.8181 46.2695 20.251C41.5924 22.4675 37.989 24.5638 35.5527 26.1084C34.3347 26.8807 33.4086 27.5156 32.7852 27.958C32.4734 28.1792 32.2369 28.3522 32.0781 28.4707C31.9989 28.5298 31.939 28.5754 31.8984 28.6064C31.8781 28.622 31.8621 28.6335 31.8516 28.6416C31.8464 28.6456 31.8426 28.6492 31.8398 28.6514C31.8385 28.6524 31.8377 28.6537 31.8369 28.6543H31.8359L31.835 28.6553L31.291 29.0811L31.8652 29.4648C52.6564 43.3538 68.9864 60.2937 80.1201 73.7666C85.6857 80.5015 89.9506 86.3672 92.8232 90.5479C94.2594 92.6379 95.3478 94.3069 96.0762 95.4521C96.4403 96.0246 96.7145 96.4666 96.8975 96.7646C96.9889 96.9137 97.0579 97.027 97.1035 97.1025C97.1262 97.1402 97.143 97.1687 97.1543 97.1875C97.1599 97.1969 97.1642 97.2044 97.167 97.209C97.1683 97.2112 97.1693 97.2128 97.1699 97.2139L97.1709 97.2148L97.6055 97.9473L98.0332 97.2119L97.6006 96.96C97.9984 97.1914 98.0306 97.2096 98.0332 97.2109L98.0342 97.21C98.0345 97.2093 98.0346 97.208 98.0352 97.207C98.0366 97.2045 98.0392 97.2011 98.042 97.1963C98.0479 97.1861 98.0567 97.1705 98.0684 97.1504C98.0916 97.1102 98.1264 97.0505 98.1719 96.9717C98.2629 96.8139 98.3978 96.5795 98.5723 96.2744C98.9211 95.6642 99.4296 94.769 100.068 93.6289C101.346 91.3481 103.146 88.0857 105.235 84.1582C109.413 76.3041 114.75 65.7843 119.381 55.1309C124.016 44.4689 127.608 33.4809 130.041 25.1621C131.258 21.0017 132.185 17.5062 132.809 15.0508C133.12 13.8232 133.356 12.8548 133.514 12.1934C133.593 11.8629 133.653 11.6091 133.692 11.4375C133.712 11.3517 133.727 11.2861 133.737 11.2422C133.742 11.2203 133.746 11.2035 133.748 11.1924C133.749 11.1868 133.75 11.1825 133.751 11.1797C133.751 11.1784 133.752 11.1775 133.752 11.1768V11.1758L133.861 10.6904L133.378 10.5781H133.377H133.375C133.373 10.5778 133.371 10.5768 133.368 10.5762C133.362 10.5748 133.353 10.5729 133.342 10.5703C133.318 10.565 133.284 10.5569 133.238 10.5469C133.147 10.5267 133.013 10.4972 132.836 10.46C132.482 10.3854 131.959 10.2795 131.28 10.1523C129.922 9.89796 127.937 9.5592 125.427 9.2207C120.507 8.55725 113.565 7.89515 105.359 7.86914V7.50195C121.787 7.55325 132.991 10.1137 133.442 10.2188L134.259 10.4072L134.065 11.2656C134.012 11.4998 128.843 34.1957 119.671 55.293C110.512 76.3641 98.4282 97.199 98.3037 97.4131L97.6084 98.6074L96.9033 97.4199V97.4189L96.6025 96.9258C95.2639 94.753 89.492 85.6431 79.8848 74.0176C69.7479 61.7509 53.1572 44.1137 31.7021 29.7812L30.6895 29.1045L31.6523 28.3525C31.8409 28.2051 36.8495 24.3177 46.1465 19.9121C54.6944 15.8613 68.6286 10.6094 86.4492 8.6084L86.4541 8.60742C92.2739 7.89233 98.295 7.52038 104.358 7.50098V7.87012Z" fill="white" stroke="#D2DFEB"/>
<path d="M85.4824 13.0537C99.1312 11.5329 110.198 11.6401 117.848 12.127C121.672 12.3704 124.643 12.7085 126.654 12.9854C127.66 13.1238 128.427 13.2467 128.94 13.335C129.031 13.3506 129.114 13.3665 129.189 13.3799C129.158 13.4983 129.123 13.6366 129.082 13.793C128.923 14.3975 128.688 15.2791 128.388 16.3867C127.787 18.6022 126.922 21.7218 125.865 25.3369C123.751 32.57 120.874 41.7775 117.817 49.6973C114.3 58.8056 109.174 69.2988 104.922 77.5225C102.797 81.6323 100.891 85.1716 99.5176 87.6836C98.8308 88.9396 98.2776 89.9393 97.8955 90.624C97.8282 90.7447 97.7654 90.8552 97.709 90.9561C97.5515 90.7137 97.3548 90.4099 97.1162 90.0508C96.4255 89.0112 95.3971 87.4975 94.0449 85.5967C91.3403 81.7948 87.339 76.4436 82.1484 70.2432C71.8815 57.9787 56.9524 42.3821 38.1963 28.8682C38.2811 28.8185 38.3736 28.7635 38.4746 28.7051C39.086 28.3517 39.9922 27.8419 41.166 27.2188C43.5141 25.9722 46.9338 24.272 51.2129 22.4629C59.7713 18.8447 71.7583 14.7941 85.4824 13.0537Z" fill="#435C66" stroke="#D2DFEB"/>
<path d="M41.873 29.1963C58.8714 24.5697 70.7672 25.8398 79.0645 30.2861C87.5165 34.8155 92.3334 42.6927 94.9912 51.2471C97.6497 59.804 98.1321 68.9939 97.9453 76.0596C97.852 79.589 97.5921 82.5815 97.3555 84.6904C97.26 85.5418 97.1661 86.249 97.0908 86.7891C96.7097 86.2484 96.186 85.5086 95.5371 84.6064C94.0929 82.5987 92.0324 79.7829 89.5684 76.5508C84.6425 70.0894 78.0932 61.9522 71.6182 55.2754C65.1501 48.6024 57.5133 41.9284 51.498 36.9268C48.4893 34.425 45.8835 32.34 44.0303 30.8799C43.113 30.1572 42.3799 29.5875 41.873 29.1963Z" fill="#3E565F" stroke="#D2DFEB"/>
<path d="M107.055 13.6719C112.603 13.6741 117.478 13.9807 120.966 14.2871C122.709 14.4403 124.105 14.5934 125.064 14.708C125.477 14.7572 125.808 14.8 126.052 14.832C124.854 23.7157 121.178 35.4201 117.758 44.9971C116.085 49.681 114.476 53.8459 113.258 56.9082C113.38 56.0537 113.491 55.1109 113.579 54.085C114.025 48.8717 113.877 41.516 111.576 32.7344L111.347 31.8799C108.798 22.6285 103.34 18.0726 98.502 15.8447C96.7627 15.0439 95.1064 14.5475 93.7002 14.2373C93.8419 14.2243 93.9871 14.2103 94.1357 14.1973C96.7515 13.9677 100.432 13.7375 105.029 13.6836L107.055 13.6719Z" fill="#919CA7" stroke="#D2DFEB"/>
<path d="M88.2803 18.3857C98.928 16.9681 107.437 16.6969 113.28 16.7793C116.202 16.8205 118.457 16.9503 119.979 17.0693C120.74 17.1289 121.319 17.1857 121.705 17.2275C121.722 17.2293 121.738 17.2307 121.754 17.2324C121.686 17.5664 121.586 18.0494 121.454 18.6523C121.187 19.873 120.793 21.5847 120.279 23.5459C119.766 25.506 119.25 27.2951 118.862 28.5938C118.669 29.2426 118.508 29.769 118.395 30.1328C118.368 30.2168 118.344 30.2922 118.323 30.3584C118.122 30.3637 117.84 30.3718 117.493 30.3818C116.747 30.4034 115.697 30.436 114.479 30.4805C112.042 30.5693 108.928 30.7054 106.23 30.8945C103.532 31.083 101.162 31.335 99.4668 31.54C98.6191 31.6425 97.9398 31.7336 97.4717 31.7988C97.2376 31.8314 97.0556 31.8579 96.9326 31.876C96.8714 31.885 96.8246 31.8917 96.793 31.8965C96.7771 31.8989 96.765 31.9011 96.7568 31.9023C96.7531 31.9029 96.7501 31.903 96.748 31.9033C96.747 31.9035 96.7457 31.9042 96.7451 31.9043H96.7441L96.2266 31.9844L96.3311 32.498V32.499C96.3313 32.5001 96.3316 32.5027 96.332 32.5049C96.3329 32.5093 96.3342 32.5159 96.3359 32.5244C96.3395 32.5421 96.3455 32.5688 96.3525 32.6035C96.3666 32.6729 96.387 32.7757 96.4141 32.9092C96.4683 33.1768 96.5476 33.5681 96.6475 34.0625C96.8472 35.0515 97.1294 36.454 97.46 38.1055C97.7905 39.7569 98.1692 41.6576 98.5615 43.6445L99.7451 49.7021C100.512 53.6848 101.28 58.78 101.856 62.8848C102.144 64.936 102.385 66.7384 102.553 68.0273C102.637 68.6716 102.702 69.1881 102.747 69.543C102.769 69.7173 102.786 69.8527 102.798 69.9453L97.7539 80.6758C97.7253 80.6364 97.6956 80.5958 97.665 80.5537C97.304 80.0571 96.808 79.3752 96.2676 78.6357C95.1879 77.1584 93.9269 75.4441 93.2148 74.5117V74.5107L92.6934 73.8418C92.1896 73.207 91.7433 72.6774 91.3975 72.2793C91.167 72.0139 90.9805 71.8065 90.8516 71.665C90.8179 71.6281 90.7874 71.5962 90.7617 71.5684C90.7504 71.477 90.7354 71.348 90.7148 71.1846C90.6705 70.832 90.605 70.3183 90.5225 69.6768C90.3574 68.3938 90.1216 66.5963 89.8398 64.5371C89.2765 60.4199 88.5276 55.2507 87.7861 51.0586C86.9876 46.5493 85.9788 42.2638 85.1699 39.1074C84.7655 37.5292 84.411 36.2322 84.1572 35.3291C84.0303 34.8775 83.9284 34.5237 83.8584 34.2832C83.8234 34.1631 83.7967 34.071 83.7783 34.0088C83.7692 33.9779 83.7616 33.9544 83.7568 33.9385C83.7545 33.9305 83.7532 33.924 83.752 33.9199C83.7513 33.9179 83.7503 33.9161 83.75 33.915V33.9141L83.623 33.4912L83.1885 33.5645H83.1875H83.1865C83.1856 33.5646 83.1843 33.5652 83.1826 33.5654C83.1793 33.566 83.1743 33.5663 83.168 33.5674C83.1546 33.5696 83.1344 33.5737 83.1084 33.5781C83.0563 33.587 82.9792 33.6001 82.8799 33.6172C82.6813 33.6513 82.3931 33.7013 82.0342 33.7646C81.3162 33.8915 80.3146 34.0723 79.1807 34.2881C77.1991 34.6652 74.8026 35.1503 72.8057 35.6436L71.9766 35.8555C69.892 36.4057 67.0016 37.2379 64.6357 37.9316C63.4519 38.2788 62.3975 38.5923 61.6396 38.8184C61.2608 38.9314 60.9554 39.0229 60.7451 39.0859C60.7265 39.0915 60.7085 39.0964 60.6914 39.1016C60.6458 39.06 60.5926 39.0119 60.5332 38.958C60.2963 38.7428 59.9535 38.4323 59.5283 38.0508C58.6775 37.2873 57.4968 36.2385 56.1787 35.0977C53.8114 33.0486 50.9799 30.685 48.8154 29.1484C49.2395 28.9372 49.8479 28.6438 50.6387 28.2871C52.3436 27.5182 54.8956 26.4538 58.2734 25.2793C65.0292 22.9303 75.089 20.14 88.2803 18.3857Z" fill="white" stroke="#D2DFEB"/>
<path d="M51.2617 29.1592C67.856 22.4217 79.0257 20.4334 85.7119 21.2275C89.1011 21.6301 91.2637 22.7372 92.4326 24.2197C93.59 25.6877 93.8485 27.6215 93.2188 29.8643C91.8985 34.5613 90.8895 38.0531 90.25 40.7803C89.6111 43.505 89.3277 45.5211 89.4854 47.2617C89.645 49.0236 90.2526 50.4671 91.3232 52.0557C92.3807 53.6247 93.912 55.3661 95.9238 57.708C99.6347 62.0351 99.9405 67.293 99.2891 71.5283C98.9639 73.6422 98.4016 75.4842 97.9209 76.7979C97.7715 77.2062 97.6276 77.5621 97.5039 77.8594C97.2351 77.3964 96.8154 76.7637 96.1553 75.9072L95.7695 75.415L94.2598 73.54C93.8026 72.9766 93.3965 72.4803 93.0586 72.0693C92.7209 71.6586 92.4512 71.3327 92.2656 71.1094C92.1953 71.0247 92.137 70.9546 92.0918 70.9004C92.0913 70.8783 92.0916 70.8542 92.0908 70.8281C92.0858 70.6565 92.0749 70.3963 92.0527 70.0391C92.0084 69.3246 91.9181 68.2179 91.7324 66.6377C91.3609 63.4768 90.6085 58.4177 89.0879 50.8057C87.5681 43.1997 86.4697 38.6312 85.749 35.96C85.3887 34.6244 85.122 33.7612 84.9443 33.2285C84.8555 32.9621 84.7888 32.7771 84.7432 32.6572C84.7204 32.5974 84.7028 32.5535 84.6904 32.5234C84.6843 32.5084 84.6794 32.4967 84.6758 32.4883C84.674 32.484 84.6721 32.4802 84.6709 32.4775C84.6704 32.4765 84.6703 32.4754 84.6699 32.4746L84.6689 32.4727L84.2119 32.6758L84.668 32.4717L84.5332 32.168L84.1992 32.1758H84.1875C84.1811 32.176 84.1724 32.1763 84.1611 32.1768C84.138 32.1777 84.1038 32.1792 84.0596 32.1816C83.9712 32.1866 83.84 32.1959 83.6641 32.2109C83.3116 32.2411 82.7786 32.2966 82.0459 32.3994C80.5801 32.6052 78.3137 32.9989 75.0938 33.7529C72.1209 34.4494 68.5761 35.4396 65.7793 36.2539C64.38 36.6613 63.1661 37.0259 62.3018 37.2881C61.8697 37.4191 61.525 37.5247 61.2881 37.5977C61.2514 37.6089 61.217 37.6192 61.1855 37.6289L51.2617 29.1592Z" fill="#E6E7E8" stroke="#D2DFEB"/>
<path d="M33.2939 105.969V111.85H20.3643V150.89H13.4287V111.85H0.5V105.969H33.2939Z" fill="#435C66" stroke="#D2DFEB"/>
<path d="M48.9834 116.562C51.7761 116.563 54.1054 117.154 55.9941 118.31L56.3662 118.549C58.3318 119.872 59.8219 121.711 60.8369 124.088C61.8544 126.472 62.3701 129.247 62.3701 132.423C62.3701 133.865 62.2848 135.004 62.124 135.854H40.6221L40.6885 136.414C41.0631 139.544 42.1742 142.025 44.0566 143.81C45.9377 145.592 48.2987 146.475 51.1045 146.475C52.6149 146.475 54.0279 146.244 55.3418 145.778C56.4777 145.376 57.6012 144.834 58.7119 144.156L60.915 148.331C59.4528 149.273 57.8383 150.064 56.0664 150.699C54.1607 151.381 52.1657 151.724 50.0781 151.724C47.0563 151.724 44.3378 151.029 41.9111 149.647C39.4888 148.269 37.5698 146.28 36.1523 143.665V143.664L35.8955 143.17C34.6533 140.665 34.0234 137.673 34.0234 134.178C34.0235 130.5 34.7507 127.355 36.1855 124.728C37.6299 122.081 39.4991 120.066 41.7881 118.665C44.0859 117.26 46.4829 116.562 48.9834 116.562ZM49.1895 121.812C47.0871 121.812 45.2204 122.607 43.6084 124.163C41.976 125.738 40.9956 127.974 40.6211 130.812L40.5469 131.378H56.5293V130.878C56.5293 128.315 56.0164 126.209 54.9424 124.607L54.7197 124.294L54.4766 123.99C53.2284 122.524 51.441 121.812 49.1895 121.812Z" fill="#435C66" stroke="#D2DFEB"/>
<path d="M92.6904 117.391V121.021L76.9717 144.629L76.4541 145.406H93.2373V150.866H67.9688V147.165L83.7549 123.558L84.2754 122.78H69.7471V117.391H92.6904Z" fill="#435C66" stroke="#D2DFEB"/>
<path d="M123.241 105.969V136.995C123.241 139.533 122.849 141.868 122.069 144.006L121.908 144.431C121.03 146.661 119.653 148.43 117.775 149.752C115.921 151.057 113.478 151.732 110.402 151.732C107.372 151.732 104.82 151.091 102.724 149.837C100.728 148.642 99.0556 146.894 97.7129 144.572L102.381 141.038C103.255 142.521 104.26 143.653 105.409 144.401V144.4C106.673 145.224 108.044 145.641 109.513 145.641C111.72 145.641 113.455 144.945 114.623 143.486C115.784 142.036 116.306 139.591 116.306 136.293V105.969H123.241Z" fill="#63BD5E" stroke="#D2DFEB"/>
<path d="M148.871 105.109C151.401 105.109 153.841 105.621 156.196 106.647C158.415 107.615 160.334 108.892 161.956 110.479L158.507 114.918C157.178 113.831 155.78 112.955 154.309 112.298C152.664 111.564 150.849 111.201 148.871 111.201C146.698 111.201 144.887 111.7 143.479 112.738C142.045 113.797 141.325 115.272 141.325 117.107C141.325 118.299 141.643 119.333 142.302 120.18L142.438 120.347C143.061 121.076 143.856 121.699 144.812 122.22L145.23 122.437C146.334 122.98 147.506 123.509 148.744 124.026V124.027L154.826 126.622V126.623C157.414 127.769 159.52 129.261 161.153 131.097C162.736 132.876 163.559 135.354 163.559 138.594C163.559 140.985 162.944 143.163 161.718 145.142C160.493 147.117 158.729 148.708 156.406 149.911C154.098 151.106 151.296 151.716 147.982 151.716C145.039 151.716 142.197 151.143 139.452 149.999C136.848 148.913 134.538 147.394 132.518 145.441L136.532 140.654C138.074 142.07 139.813 143.232 141.75 144.137V144.138C143.862 145.125 145.987 145.624 148.119 145.624C150.569 145.624 152.541 145.142 153.971 144.11L154.249 143.896C155.693 142.721 156.417 141.148 156.417 139.226C156.417 137.184 155.716 135.621 154.239 134.663C153.077 133.91 151.646 133.143 149.953 132.363L149.211 132.028L143.056 129.29H143.057C141.632 128.651 140.238 127.828 138.874 126.817L138.873 126.816C137.625 125.894 136.586 124.732 135.756 123.327L135.592 123.043L135.439 122.758C134.701 121.312 134.321 119.574 134.321 117.529C134.321 115.191 134.945 113.099 136.187 111.242C137.435 109.377 139.146 107.888 141.334 106.775C143.511 105.67 146.019 105.109 148.871 105.109Z" fill="#63BD5E" stroke="#D2DFEB"/>
</svg>
